<svg width="87" height="100" viewBox="0 0 87 100" fill="none" xmlns="http://www.w3.org/2000/svg">
<g clip-path="url(#clip0_303_5)">
<path d="M5.34254 43.5798C5.34254 43.5798 3.03479 32.0551 8.17093 29.8646C13.3071 27.6741 11.3699 24.3298 11.3699 24.3298C11.3699 24.3298 12.3502 15.1035 18.9967 12.8896C25.6432 10.6756 31.7878 10.5537 31.7878 10.5537C31.7878 10.5537 37.8339 4.15576 42.6745 4.15576C47.5152 4.15576 52.6372 7.59863 52.6372 7.59863C52.6372 7.59863 57.4638 6.74964 61.9855 10.2441C66.5072 13.7385 70.8413 24.1422 70.8413 24.1422C70.8413 24.1422 76.5496 23.5371 80.3114 29.3721C84.0733 35.2071 84.8003 37.1256 83.2008 41.2439C81.6014 45.3622 78.2805 48.6878 78.2805 48.6878L5.76936 47.5808L5.34254 43.5798Z" fill="#FA5E78"/>
<path d="M68.5007 77.6988C67.8581 78.2523 67.5579 79.0966 67.6939 79.9362L69.9125 93.0134L57.2669 85.3866C56.6665 85.0254 55.9347 84.941 55.2687 85.1615C51.474 86.3951 47.4964 87.0189 43.4438 87.0189C22.9086 87.0189 6.08835 70.8037 5.11271 50.5077H5.54893H5.55363H81.7796C81.2683 60.9817 76.4934 70.8037 68.5007 77.6988ZM7.47675 32.7071C8.75258 31.2202 10.3521 30.1461 12.2283 29.5129C16.1355 28.1948 20.5305 29.0391 22.918 30.1273C20.554 34.3113 20.6384 39.0534 20.6478 39.302C20.6806 40.6388 21.7923 41.6942 23.1291 41.6567C24.4612 41.6192 25.5119 40.4981 25.4837 39.1801C25.4837 39.0956 25.4228 33.8376 28.3778 30.8215C29.799 29.3722 31.6893 28.6686 34.1659 28.6686C35.5028 28.6686 36.5863 27.5851 36.5863 26.2483C36.5863 24.9114 35.5028 23.8279 34.1659 23.8279C30.9951 23.8279 28.3027 24.6769 26.1357 26.3561C23.434 24.7801 18.5417 23.4574 13.5745 24.2266C13.4853 20.7556 14.5782 17.9272 16.8438 15.8071C23.0071 10.019 31.2625 12.3314 31.6096 12.4346C32.7916 12.777 34.0534 12.1813 34.5271 11.0415C34.6162 10.8351 36.8818 5.68962 42.1539 5.04701C44.8697 4.71398 47.8295 6.07424 50.0903 7.96453C48.0828 9.12778 46.8022 10.3145 46.7225 10.3895C45.7469 11.3042 45.7 12.8333 46.6146 13.8089C47.5293 14.7846 49.0584 14.8315 50.034 13.9215C50.0481 13.9074 52.1495 11.9796 54.9544 11.0321C57.4076 10.1972 59.5183 10.3661 61.4227 11.5481C65.0625 13.8089 67.6236 17.824 69.0495 23.4949C67.511 23.8748 66.1273 24.3908 64.9875 24.9021C63.327 24.0672 61.6947 23.6919 60.5268 23.6169C59.19 23.5277 58.0408 24.5409 57.9517 25.873C57.8532 27.2051 58.8663 28.3496 60.1938 28.4434C60.4846 28.4669 61.9105 28.6311 63.388 29.5129C63.5193 29.6161 63.6601 29.7052 63.8055 29.7802C65.0438 30.6386 66.2492 32.0458 66.7746 34.3441C67.0748 35.6481 68.374 36.4596 69.678 36.1594C70.7991 35.9014 71.5542 34.907 71.5542 33.8047C71.5542 33.6265 71.5355 33.4436 71.4933 33.2606C71.0477 31.314 70.2596 29.7333 69.2887 28.4528C70.1846 28.1808 71.1743 27.9509 72.1968 27.843C73.9652 27.6601 75.56 27.8712 76.9296 28.4763C79.4531 29.5879 81.3856 32.0598 81.9813 34.9398C82.4926 37.4071 82.2581 41.2252 78.4822 45.6718H48.7207C49.0819 44.1708 49.2413 42.7261 49.2413 41.3612C49.2413 34.785 45.7281 30.057 45.5264 29.7896C44.7197 28.7249 43.1999 28.5185 42.1352 29.3252C41.0704 30.132 40.864 31.6471 41.6661 32.7071C41.8678 32.9792 46.0096 38.6782 43.6877 45.6671H7.10151C5.65214 41.9287 4.34816 36.3564 7.47675 32.7071ZM86.6625 48.6315C86.6625 48.4158 86.6625 48.1953 86.6531 47.9889C86.6062 46.7506 85.6306 45.7562 84.411 45.6671C86.1278 42.8059 87.0143 39.818 87.0143 36.877C87.0143 35.892 86.9158 34.9164 86.7141 33.9501C85.8088 29.5645 82.8022 25.7651 78.8715 24.039C77.3377 23.3636 75.6679 23.0024 73.8854 22.9461C72.1875 15.6852 68.8572 10.4693 63.9696 7.4345C61.296 5.77874 58.2331 5.29092 55.0295 5.9945C51.8258 2.50943 46.7507 -0.389334 41.5676 0.243889C35.8311 0.94278 32.5196 4.96257 31.0233 7.36882C27.4632 6.7872 19.7613 6.42134 13.5275 12.2751C9.17472 16.3559 8.4477 21.5296 8.81356 25.6901C6.89513 26.6188 5.21122 27.9134 3.79937 29.5551C-0.403357 34.4708 0.436242 40.9625 2.00288 45.7515C1.01787 46.0283 0.281464 46.9148 0.239249 47.9842C0.229868 48.1953 0.229858 48.4111 0.229858 48.6315C0.229858 72.4642 19.6159 91.8502 43.4485 91.8502C47.6325 91.8502 51.7461 91.2545 55.7002 90.0865L71.9342 99.8757C72.7456 100.364 73.7635 100.335 74.5468 99.8053C75.3301 99.2753 75.7288 98.3325 75.5693 97.3991L72.694 80.4428C81.592 72.2719 86.6625 60.7566 86.6625 48.6315Z" fill="black"/>
<path d="M32.1302 15.2911C23.2416 13.2977 19.2969 17.8663 19.1327 18.0633C18.2744 19.0905 18.4104 20.6149 19.4376 21.4733C20.4508 22.3176 21.9517 22.1956 22.8148 21.2106C22.9743 21.0464 25.3102 18.7199 31.0701 20.0145C32.3741 20.3053 33.6687 19.4892 33.9595 18.1852C34.0017 18.007 34.0205 17.8287 34.0205 17.6505C34.0205 16.5435 33.2559 15.5444 32.1302 15.2911Z" fill="white"/>
<path d="M14.7565 30.9623C12.0547 31.6705 10.1175 33.0495 8.98709 35.0665C7.31257 38.059 8.19439 41.2017 8.30228 41.5488C8.69159 42.8293 10.0425 43.547 11.323 43.1623C12.5941 42.7777 13.3165 41.4362 12.9412 40.1651C12.9225 40.09 12.5378 38.5985 13.232 37.3977C13.6964 36.5862 14.6251 35.9952 15.9854 35.6387C17.0736 35.3526 17.7912 34.3723 17.7912 33.2981C17.7912 33.0964 17.7678 32.8901 17.7115 32.6837C17.3738 31.3985 16.051 30.6245 14.7565 30.9623Z" fill="white"/>
<path d="M58.7537 14.2029C51.3661 14.2029 47.8998 20.2396 47.0977 23.4292C46.7694 24.7238 47.5574 26.0418 48.8567 26.3655C50.1513 26.6891 51.4599 25.9105 51.7883 24.6206C51.9431 24.0389 53.43 19.0388 58.7537 19.0388C60.0905 19.0388 61.1741 17.9553 61.1741 16.6185C61.1741 15.2864 60.0905 14.2029 58.7537 14.2029Z" fill="white"/>
<path d="M24.616 64.7294C24.616 62.4029 26.5016 60.5173 28.8234 60.5173C31.1499 60.5173 33.0308 62.4029 33.0308 64.7294C33.0308 67.0513 31.1452 68.9369 28.8234 68.9369C26.4969 68.9369 24.616 67.0513 24.616 64.7294Z" fill="black"/>
<path d="M39.8415 64.7294C39.8415 62.4029 41.7271 60.5173 44.0536 60.5173C46.3801 60.5173 48.261 62.4029 48.261 64.7294C48.261 67.0513 46.3754 68.9369 44.0536 68.9369C41.7271 68.9369 39.8415 67.0513 39.8415 64.7294Z" fill="black"/>
<path d="M55.067 64.7294C55.067 62.4029 56.9526 60.5173 59.2791 60.5173C61.6056 60.5173 63.4865 62.4029 63.4865 64.7294C63.4865 67.0513 61.6009 68.9369 59.2791 68.9369C56.9526 68.9369 55.067 67.0513 55.067 64.7294Z" fill="black"/>
</g>
<defs>
<clipPath id="clip0_303_5">
<rect width="86.8852" height="100" fill="white"/>
</clipPath>
</defs>
</svg>
