<svg width="24" height="24" viewBox="0 0 24 24" fill="none" xmlns="http://www.w3.org/2000/svg">
  <rect width="24" height="24" rx="12" fill="#008DD2" />
  <path fill-rule="evenodd" clip-rule="evenodd"
    d="M11.4 6C14.3823 6 16.8 8.41766 16.8 11.4C16.8 12.6749 16.3582 13.8466 15.6194 14.7703L17.8243 16.9757C18.0586 17.2101 18.0586 17.59 17.8243 17.8243C17.608 18.0406 17.2676 18.0572 17.0323 17.8742L16.9757 17.8243L14.7703 15.6194C13.8466 16.3582 12.6749 16.8 11.4 16.8C8.41766 16.8 6 14.3823 6 11.4C6 8.41766 8.41766 6 11.4 6ZM11.4 7.2C9.0804 7.2 7.2 9.0804 7.2 11.4C7.2 13.7196 9.0804 15.6 11.4 15.6C13.7196 15.6 15.6 13.7196 15.6 11.4C15.6 9.0804 13.7196 7.2 11.4 7.2Z"
    fill="#F1F1F1" />
</svg>