<svg width="1200" height="1200" fill="none" xmlns="http://www.w3.org/2000/svg"><g clip-path="url(#clip0_308_2)"><g clip-path="url(#clip1_308_2)"><path d="M187.538 526.011s-26.011-129.806 31.879-154.478c57.89-24.672 36.055-62.34 36.055-62.34s11.05-103.919 85.962-128.855c74.913-24.936 144.169-26.31 144.169-26.31s68.146-72.061 122.705-72.061 112.29 38.778 112.29 38.778 54.4-9.563 105.364 29.796c50.964 39.359 99.814 156.538 99.814 156.538s64.339-6.815 106.734 58.907c42.4 65.721 50.6 87.329 32.57 133.715-18.03 46.385-55.46 83.842-55.46 83.842l-817.271-12.468-4.811-45.064z" fill="#FA5E78"/><path d="M1068.99 582.383H175.974v93.374l89.627 192.789 158.356 136.114 198.758 44.6 143.96-32.99 119.348 81.76h48.296v-182.1c34.365-50.017 106.161-157.39 118.421-186.749 12.26-29.36 15.94-110.099 16.25-146.798z" fill="#fff"/><path d="M899.395 910.302c-7.243 6.234-10.627 15.744-9.093 25.201l25.006 147.297-142.53-85.908c-6.767-4.068-15.014-5.019-22.522-2.536-42.769 13.894-87.601 20.924-133.278 20.924-231.452 0-421.034-182.639-432.031-411.238h864.113c-5.76 117.971-59.58 228.599-149.665 306.26zM211.592 403.549c14.38-16.748 32.408-28.846 53.555-35.978 44.038-14.846 93.575-5.336 120.484 6.921-26.645 47.125-25.693 100.537-25.587 103.337.37 15.057 12.899 26.943 27.966 26.521 15.015-.423 26.857-13.049 26.54-27.895 0-.951-.688-60.174 32.619-94.145 16.018-16.324 37.324-24.249 65.238-24.249 15.067 0 27.279-12.204 27.279-27.261 0-15.057-12.212-27.26-27.279-27.26-35.738 0-66.084 9.562-90.509 28.475-30.451-17.751-85.592-32.649-141.578-23.985-1.005-39.095 11.313-70.952 36.848-94.831 69.468-65.193 162.514-39.148 166.426-37.986 13.323 3.857 27.544-2.852 32.884-15.69 1.004-2.325 26.539-60.28 85.962-67.518 30.61-3.751 63.969 11.57 89.451 32.861-22.627 13.102-37.06 26.468-37.959 27.313-10.996 10.302-11.525 27.525-1.216 38.514 10.309 10.989 27.544 11.517 38.54 1.268.159-.159 23.844-21.872 55.458-32.544 27.65-9.404 51.44-7.502 72.904 5.811 41.025 25.465 69.891 70.688 85.962 134.561-17.34 4.279-32.936 10.09-45.783 15.849-18.715-9.404-37.113-13.63-50.277-14.476-15.067-1.004-28.019 10.408-29.024 25.412-1.11 15.004 10.31 27.895 25.271 28.951 3.278.264 19.349 2.114 36.003 12.046a29.554 29.554 0 004.705 3.011c13.957 9.668 27.543 25.517 33.465 51.405 3.383 14.686 18.027 23.826 32.724 20.445 12.636-2.906 21.147-14.106 21.147-26.521a27.21 27.21 0 00-.687-6.128c-5.022-21.925-13.904-39.729-24.848-54.152 10.098-3.064 21.253-5.653 32.778-6.868 19.931-2.061 37.906.317 53.343 7.132 28.443 12.521 50.223 40.363 56.943 72.801 5.76 27.789 3.11 70.793-39.44 120.877H676.454c4.07-16.906 5.868-33.178 5.868-48.552 0-74.068-39.598-127.322-41.871-130.333-9.093-11.993-26.222-14.318-38.223-5.231-12.001 9.087-14.327 26.152-5.286 38.092 2.273 3.064 48.955 67.253 22.785 145.971H207.363c-16.336-42.106-31.033-104.869 4.229-145.971zm892.508 179.36c0-2.43 0-4.913-.11-7.237-.53-13.948-11.52-25.148-25.27-26.152 19.35-32.227 29.34-65.88 29.34-99.005 0-11.094-1.11-22.083-3.38-32.966-10.21-49.397-44.09-92.19-88.4-111.632-17.283-7.608-36.104-11.676-56.194-12.31-19.138-81.782-56.673-140.53-111.761-174.711-30.134-18.65-64.657-24.144-100.765-16.219-36.108-39.254-93.311-71.903-151.729-64.771-64.656 7.872-101.98 53.148-118.845 80.25-40.126-6.551-126.934-10.672-197.195 55.261-49.061 45.963-57.255 104.235-53.131 151.096-21.623 10.461-40.602 25.042-56.515 43.533-47.369 55.367-37.906 128.485-20.249 182.425-11.102 3.117-19.402 13.102-19.878 25.148-.105 2.377-.105 4.807-.105 7.29 0 268.434 218.5 486.781 487.118 486.781 47.158 0 93.522-6.71 138.089-19.86l182.973 110.26a27.38 27.38 0 0029.447-.8c8.829-5.97 13.323-16.58 11.526-27.1l-32.408-190.981c100.292-92.032 157.442-221.732 157.442-358.3z" fill="#000"/><path d="M489.463 207.387c-100.184-22.453-144.645 29.005-146.495 31.223-9.675 11.57-8.142 28.74 3.436 38.408 11.419 9.51 28.337 8.136 38.064-2.958 1.798-1.849 28.126-28.053 93.047-13.472 14.697 3.276 29.288-5.917 32.566-20.604.476-2.008.687-4.015.687-6.023 0-12.468-8.617-23.721-21.305-26.574zM293.642 383.895c-30.451 7.978-52.285 23.51-65.026 46.227-18.874 33.707-8.935 69.103-7.719 73.013 4.388 14.422 19.614 22.506 34.047 18.173 14.327-4.332 22.468-19.441 18.239-33.758-.212-.846-4.547-17.646 3.278-31.171 5.233-9.139 15.701-15.796 31.033-19.811 12.265-3.223 20.354-14.265 20.354-26.363 0-2.272-.265-4.596-.899-6.921-3.807-14.475-18.715-23.192-33.307-19.389zm495.895-188.764c-83.266 0-122.335 67.993-131.375 103.918-3.701 14.581 5.181 29.427 19.825 33.072 14.591 3.645 29.341-5.125 33.042-19.653 1.745-6.551 18.504-62.869 78.508-62.869 15.067 0 27.279-12.204 27.279-27.261 0-15.004-12.212-27.207-27.279-27.207z" fill="#fff"/><path d="M404.769 764.225c0-26.204 21.253-47.442 47.422-47.442 26.223 0 47.422 21.238 47.422 47.442 0 26.151-21.252 47.389-47.422 47.389-26.222 0-47.422-21.238-47.422-47.389zm171.607 0c0-26.204 21.253-47.442 47.475-47.442s47.422 21.238 47.422 47.442c0 26.151-21.253 47.389-47.422 47.389-26.222 0-47.475-21.238-47.475-47.389zm171.607 0c0-26.204 21.253-47.442 47.475-47.442s47.422 21.238 47.422 47.442c0 26.151-21.253 47.389-47.422 47.389-26.222 0-47.475-21.238-47.475-47.389z" fill="#000"/></g></g><defs><clipPath id="clip0_308_2"><path fill="#fff" d="M0 0h1200v1200H0z"/></clipPath><clipPath id="clip1_308_2"><path fill="#fff" transform="translate(130 37)" d="M0 0h978v1127H0z"/></clipPath></defs></svg>