<svg width="216" height="61" viewBox="0 0 216 61" fill="none" xmlns="http://www.w3.org/2000/svg">
<g clip-path="url(#clip0_107_272)">
<path d="M3.25884 26.5837C3.25884 26.5837 1.85111 19.5536 4.98416 18.2175C8.11721 16.8813 6.93551 14.8412 6.93551 14.8412C6.93551 14.8412 7.53351 9.21316 11.5879 7.86266C15.6422 6.51216 19.3905 6.43777 19.3905 6.43777C19.3905 6.43777 23.0786 2.53505 26.0314 2.53505C28.9841 2.53505 32.1086 4.6352 32.1086 4.6352C32.1086 4.6352 35.0528 4.11731 37.8111 6.24893C40.5693 8.38054 43.2131 14.7268 43.2131 14.7268C43.2131 14.7268 46.6952 14.3577 48.9899 17.917C51.2846 21.4764 51.7281 22.6466 50.7524 25.1588C49.7767 27.671 47.751 29.6996 47.751 29.6996L3.5192 29.0243L3.25884 26.5837Z" fill="#FA5E78"/>
<path d="M41.7853 47.3963C41.3934 47.7339 41.2102 48.2489 41.2932 48.7611L42.6466 56.7382L34.9327 52.0858C34.5665 51.8655 34.1201 51.814 33.7138 51.9485C31.3991 52.701 28.9728 53.0815 26.5007 53.0815C13.9742 53.0815 3.71381 43.1903 3.11868 30.8097H3.38477H3.38763H49.8855C49.5736 37.1989 46.6609 43.1903 41.7853 47.3963ZM4.56074 19.9514C5.339 19.0444 6.31468 18.3891 7.45917 18.0029C9.84257 17.1989 12.5235 17.7139 13.9799 18.3777C12.5378 20.9299 12.5894 23.8226 12.5951 23.9743C12.6151 24.7897 13.2932 25.4335 14.1087 25.4106C14.9213 25.3877 15.5622 24.7039 15.545 23.8999C15.545 23.8484 15.5078 20.6409 17.3104 18.8011C18.1773 17.917 19.3304 17.4878 20.8411 17.4878C21.6566 17.4878 22.3175 16.8269 22.3175 16.0114C22.3175 15.196 21.6566 14.5351 20.8411 14.5351C18.907 14.5351 17.2646 15.0529 15.9427 16.0773C14.2946 15.1159 11.3104 14.309 8.28034 14.7783C8.22598 12.6609 8.89264 10.9356 10.2746 9.64235C14.0343 6.1116 19.07 7.52218 19.2818 7.58513C20.0028 7.794 20.7725 7.43062 21.0615 6.73534C21.1158 6.60945 22.4978 3.47068 25.7138 3.07869C27.3705 2.87554 29.1759 3.7053 30.555 4.85838C29.3304 5.56796 28.5493 6.29185 28.5007 6.33763C27.9055 6.89557 27.8769 7.82833 28.4348 8.42347C28.9928 9.0186 29.9255 9.04721 30.5207 8.49213C30.5293 8.48355 31.8111 7.30758 33.5221 6.72961C35.0185 6.22032 36.3061 6.32332 37.4678 7.04435C39.6881 8.42346 41.2503 10.8727 42.1201 14.3319C41.1816 14.5637 40.3376 14.8784 39.6423 15.1903C38.6294 14.681 37.6337 14.4521 36.9212 14.4063C36.1058 14.3519 35.4048 14.97 35.3504 15.7826C35.2904 16.5951 35.9084 17.2933 36.7181 17.3505C36.8955 17.3648 37.7653 17.465 38.6666 18.0029C38.7467 18.0658 38.8326 18.1202 38.9213 18.166C39.6766 18.6896 40.412 19.5479 40.7324 20.9499C40.9155 21.7454 41.7081 22.2403 42.5035 22.0572C43.1873 21.8999 43.648 21.2933 43.648 20.6209C43.648 20.5122 43.6366 20.4006 43.6108 20.289C43.339 19.1016 42.8583 18.1373 42.266 17.3562C42.8125 17.1903 43.4162 17.0501 44.04 16.9843C45.1187 16.8727 46.0915 17.0014 46.927 17.3705C48.4663 18.0486 49.6452 19.5565 50.0085 21.3133C50.3204 22.8183 50.1773 25.1474 47.874 27.8598H29.7195C29.9399 26.9442 30.0371 26.063 30.0371 25.2303C30.0371 21.2189 27.8941 18.3348 27.771 18.1717C27.2789 17.5222 26.3519 17.3963 25.7024 17.8884C25.0529 18.3805 24.927 19.3047 25.4163 19.9514C25.5393 20.1173 28.0658 23.5937 26.6494 27.8569H4.33185C3.44773 25.5765 2.6523 22.1774 4.56074 19.9514ZM52.864 29.6652C52.864 29.5336 52.864 29.3991 52.8583 29.2733C52.8297 28.5179 52.2346 27.9113 51.4906 27.8569C52.5379 26.1116 53.0786 24.289 53.0786 22.495C53.0786 21.8941 53.0185 21.299 52.8955 20.7096C52.3433 18.0343 50.5092 15.7167 48.1115 14.6638C47.1759 14.2518 46.1573 14.0315 45.07 13.9971C44.0343 9.56796 42.0028 6.38627 39.0214 4.53506C37.3905 3.52504 35.5221 3.22747 33.5679 3.65666C31.6137 1.53076 28.5178 -0.237481 25.3562 0.148785C21.8569 0.575108 19.8369 3.02718 18.9241 4.49499C16.7524 4.1402 12.0543 3.91703 8.25173 7.48785C5.5965 9.97712 5.15302 13.133 5.37619 15.671C4.20595 16.2375 3.17877 17.0272 2.31754 18.0286C-0.246125 21.0272 0.266031 24.9871 1.22168 27.9084C0.620823 28.0773 0.171616 28.618 0.145865 29.2704C0.140142 29.3991 0.140137 29.5308 0.140137 29.6652C0.140137 44.2032 11.9656 56.0286 26.5035 56.0286C29.0557 56.0286 31.565 55.6652 33.9771 54.9528L43.8798 60.9242C44.3748 61.2217 44.9956 61.2046 45.4735 60.8813C45.9513 60.5579 46.1945 59.9828 46.0972 59.4135L44.3433 49.0701C49.771 44.0858 52.864 37.0615 52.864 29.6652Z" fill="black"/>
<path d="M19.5994 9.32761C14.1773 8.11159 11.771 10.8984 11.6709 11.0186C11.1473 11.6452 11.2303 12.5751 11.8569 13.0987C12.4749 13.6137 13.3905 13.5393 13.917 12.9385C14.0142 12.8383 15.4391 11.4192 18.9527 12.2089C19.7481 12.3863 20.5378 11.8884 20.7152 11.093C20.741 10.9843 20.7524 10.8755 20.7524 10.7668C20.7524 10.0916 20.286 9.48212 19.5994 9.32761Z" fill="white"/>
<path d="M9.00137 18.887C7.3533 19.319 6.17161 20.1602 5.48206 21.3906C4.4606 23.216 4.99851 25.133 5.06432 25.3448C5.3018 26.1259 6.12584 26.5637 6.90695 26.329C7.68235 26.0944 8.12297 25.2761 7.89407 24.5007C7.88263 24.4549 7.64801 23.5451 8.07147 22.8126C8.35473 22.3176 8.92125 21.9571 9.75101 21.7396C10.4148 21.5651 10.8526 20.9671 10.8526 20.3119C10.8526 20.1888 10.8383 20.0629 10.8039 19.937C10.5979 19.1531 9.79107 18.681 9.00137 18.887Z" fill="white"/>
<path d="M35.8397 8.66381C31.3332 8.66381 29.2188 12.3462 28.7295 14.2919C28.5292 15.0816 29.0099 15.8856 29.8025 16.083C30.5922 16.2804 31.3905 15.8054 31.5907 15.0186C31.6852 14.6638 32.5922 11.6137 35.8397 11.6137C36.6551 11.6137 37.3161 10.9528 37.3161 10.1373C37.3161 9.32475 36.6551 8.66381 35.8397 8.66381Z" fill="white"/>
<path d="M15.0156 39.485C15.0156 38.0658 16.1658 36.9156 17.5822 36.9156C19.0013 36.9156 20.1487 38.0658 20.1487 39.485C20.1487 40.9013 18.9985 42.0515 17.5822 42.0515C16.163 42.0515 15.0156 40.9013 15.0156 39.485Z" fill="black"/>
<path d="M24.3032 39.485C24.3032 38.0658 25.4534 36.9156 26.8726 36.9156C28.2918 36.9156 29.4391 38.0658 29.4391 39.485C29.4391 40.9013 28.2889 42.0515 26.8726 42.0515C25.4534 42.0515 24.3032 40.9013 24.3032 39.485Z" fill="black"/>
<path d="M33.5908 39.485C33.5908 38.0658 34.741 36.9156 36.1602 36.9156C37.5794 36.9156 38.7267 38.0658 38.7267 39.485C38.7267 40.9013 37.5765 42.0515 36.1602 42.0515C34.741 42.0515 33.5908 40.9013 33.5908 39.485Z" fill="black"/>
<path d="M65.1909 25.4649V10.8441H72.0418C73.7963 10.8441 75.1331 11.1922 76.0521 11.8884C76.9711 12.5707 77.4306 13.4897 77.4306 14.6455C77.4306 15.4253 77.2496 16.0937 76.8876 16.6506C76.5255 17.1937 76.0382 17.6184 75.4255 17.9247C74.8267 18.2172 74.1723 18.3634 73.4621 18.3634L73.8381 17.6114C74.6596 17.6114 75.3976 17.7646 76.0521 18.071C76.7066 18.3634 77.2218 18.795 77.5977 19.3659C77.9876 19.9369 78.1826 20.647 78.1826 21.4964C78.1826 22.7496 77.7022 23.7244 76.7414 24.4206C75.7806 25.1168 74.3533 25.4649 72.4595 25.4649H65.1909ZM67.9062 23.3345H72.2924C73.3089 23.3345 74.0887 23.1674 74.6318 22.8332C75.1749 22.499 75.4464 21.9629 75.4464 21.2249C75.4464 20.5008 75.1749 19.9717 74.6318 19.6375C74.0887 19.2894 73.3089 19.1153 72.2924 19.1153H67.6973V17.0057H71.7494C72.6963 17.0057 73.4203 16.8386 73.9216 16.5044C74.4368 16.1702 74.6945 15.669 74.6945 15.0006C74.6945 14.3183 74.4368 13.81 73.9216 13.4758C73.4203 13.1416 72.6963 12.9745 71.7494 12.9745H67.9062V23.3345Z" fill="black"/>
<path d="M81.0387 25.4649V14.3113H83.5243V17.3817L83.2318 16.4835C83.566 15.7316 84.0882 15.1607 84.7984 14.7708C85.5224 14.3809 86.4206 14.186 87.4928 14.186V16.6715C87.3814 16.6437 87.277 16.6298 87.1795 16.6298C87.082 16.6158 86.9845 16.6089 86.8871 16.6089C85.8984 16.6089 85.1117 16.9013 84.5268 17.4861C83.942 18.057 83.6496 18.9134 83.6496 20.0552V25.4649H81.0387Z" fill="black"/>
<path d="M95.9928 25.4649V23.2092L95.8466 22.7288V18.7811C95.8466 18.0153 95.6168 17.4235 95.1573 17.0057C94.6978 16.5741 94.0016 16.3582 93.0686 16.3582C92.442 16.3582 91.8224 16.4557 91.2097 16.6506C90.6109 16.8456 90.1027 17.1171 89.6849 17.4652L88.6615 15.5645C89.2602 15.105 89.9704 14.7639 90.7919 14.5411C91.6274 14.3043 92.4908 14.186 93.3819 14.186C94.9972 14.186 96.2435 14.5759 97.1207 15.3556C98.0119 16.1215 98.4575 17.3121 98.4575 18.9273V25.4649H95.9928ZM92.4838 25.6112C91.6483 25.6112 90.9173 25.4719 90.2907 25.1934C89.6641 24.901 89.1767 24.5041 88.8286 24.0029C88.4944 23.4876 88.3273 22.9098 88.3273 22.2692C88.3273 21.6426 88.4735 21.0787 88.7659 20.5774C89.0723 20.0761 89.5666 19.6793 90.2489 19.3868C90.9312 19.0944 91.8363 18.9482 92.9642 18.9482H96.2017V20.6818H93.1522C92.261 20.6818 91.6622 20.828 91.3559 21.1205C91.0496 21.3989 90.8964 21.7471 90.8964 22.1648C90.8964 22.6382 91.0844 23.0142 91.4603 23.2927C91.8363 23.5712 92.3585 23.7104 93.0269 23.7104C93.6674 23.7104 94.2383 23.5642 94.7396 23.2718C95.2548 22.9794 95.6238 22.5477 95.8466 21.9768L96.2852 23.5433C96.0346 24.1978 95.582 24.7061 94.9276 25.0681C94.287 25.4301 93.4724 25.6112 92.4838 25.6112Z" fill="black"/>
<path d="M102.017 25.4649V14.3113H104.628V25.4649H102.017ZM103.333 12.4732C102.846 12.4732 102.442 12.3201 102.122 12.0137C101.815 11.7074 101.662 11.3384 101.662 10.9067C101.662 10.4611 101.815 10.0921 102.122 9.79971C102.442 9.49337 102.846 9.3402 103.333 9.3402C103.82 9.3402 104.217 9.48641 104.524 9.77882C104.844 10.0573 105.004 10.4124 105.004 10.8441C105.004 11.3036 104.851 11.6935 104.544 12.0137C104.238 12.3201 103.834 12.4732 103.333 12.4732Z" fill="black"/>
<path d="M114.592 14.186C115.484 14.186 116.277 14.36 116.973 14.7082C117.684 15.0563 118.241 15.5924 118.644 16.3164C119.048 17.0266 119.25 17.9456 119.25 19.0735V25.4649H116.639V19.4077C116.639 18.4191 116.403 17.6811 115.929 17.1937C115.47 16.7063 114.822 16.4627 113.987 16.4627C113.374 16.4627 112.831 16.588 112.357 16.8386C111.884 17.0893 111.515 17.4652 111.25 17.9665C111 18.4539 110.874 19.0735 110.874 19.8255V25.4649H108.264V14.3113H110.749V17.319L110.311 16.4C110.7 15.6898 111.264 15.1468 112.002 14.7708C112.754 14.3809 113.618 14.186 114.592 14.186Z" fill="black"/>
<path d="M71.4779 46.5608C69.4727 46.5608 67.8992 45.9968 66.7574 44.869C65.6295 43.7411 65.0656 42.1119 65.0656 39.9814V31.731H67.7809V39.877C67.7809 41.3808 68.1011 42.4739 68.7417 43.1562C69.3961 43.8385 70.3151 44.1797 71.4987 44.1797C72.6823 44.1797 73.5944 43.8385 74.2349 43.1562C74.8755 42.4739 75.1957 41.3808 75.1957 39.877V31.731H77.8693V39.9814C77.8693 42.1119 77.2984 43.7411 76.1565 44.869C75.0286 45.9968 73.4691 46.5608 71.4779 46.5608Z" fill="black"/>
<path d="M87.959 35.073C88.8502 35.073 89.6439 35.247 90.3401 35.5951C91.0503 35.9432 91.6072 36.4793 92.0111 37.2034C92.4149 37.9136 92.6168 38.8326 92.6168 39.9605V46.3519H90.0059V40.2947C90.0059 39.306 89.7692 38.568 89.2958 38.0807C88.8362 37.5933 88.1887 37.3496 87.3533 37.3496C86.7406 37.3496 86.1975 37.475 85.7241 37.7256C85.2506 37.9762 84.8816 38.3522 84.6171 38.8535C84.3664 39.3409 84.2411 39.9605 84.2411 40.7124V46.3519H81.6302V35.1983H84.1158V38.206L83.6772 37.287C84.067 36.5768 84.631 36.0338 85.369 35.6578C86.1209 35.2679 86.9843 35.073 87.959 35.073Z" fill="black"/>
<path d="M96.1377 46.3519V35.1983H98.7486V46.3519H96.1377ZM97.4536 33.3602C96.9662 33.3602 96.5624 33.2071 96.2421 32.9007C95.9358 32.5944 95.7826 32.2254 95.7826 31.7937C95.7826 31.3481 95.9358 30.9791 96.2421 30.6867C96.5624 30.3803 96.9662 30.2272 97.4536 30.2272C97.941 30.2272 98.3378 30.3734 98.6441 30.6658C98.9644 30.9443 99.1245 31.2994 99.1245 31.731C99.1245 32.1906 98.9714 32.5804 98.665 32.9007C98.3587 33.2071 97.9549 33.3602 97.4536 33.3602Z" fill="black"/>
<path d="M105.35 46.3519L100.567 35.1983H103.282L107.397 45.036H106.06L110.321 35.1983H112.828L108.045 46.3519H105.35Z" fill="black"/>
<path d="M119.605 46.4981C118.366 46.4981 117.28 46.2545 116.347 45.7671C115.428 45.2658 114.711 44.5835 114.195 43.7202C113.694 42.8568 113.443 41.8751 113.443 40.7751C113.443 39.6611 113.687 38.6794 114.174 37.83C114.676 36.9667 115.358 36.2914 116.221 35.804C117.099 35.3166 118.094 35.073 119.208 35.073C120.294 35.073 121.262 35.3097 122.111 35.7831C122.961 36.2566 123.629 36.9249 124.117 37.7883C124.604 38.6516 124.848 39.6681 124.848 40.8378C124.848 40.9492 124.841 41.0745 124.827 41.2137C124.827 41.353 124.82 41.4853 124.806 41.6106H115.511V39.877H123.427L122.404 40.42C122.418 39.7795 122.286 39.2155 122.007 38.7282C121.729 38.2408 121.346 37.8579 120.858 37.5794C120.385 37.3009 119.835 37.1617 119.208 37.1617C118.568 37.1617 118.004 37.3009 117.516 37.5794C117.043 37.8579 116.667 38.2478 116.388 38.7491C116.124 39.2364 115.992 39.8143 115.992 40.4827V40.9004C115.992 41.5688 116.145 42.1606 116.451 42.6758C116.757 43.191 117.189 43.5879 117.746 43.8664C118.303 44.1449 118.944 44.2841 119.668 44.2841C120.294 44.2841 120.858 44.1866 121.36 43.9917C121.861 43.7968 122.306 43.4904 122.696 43.0727L124.096 44.681C123.594 45.2658 122.961 45.7184 122.195 46.0386C121.443 46.345 120.58 46.4981 119.605 46.4981Z" fill="black"/>
<path d="M127.564 46.3519V35.1983H130.05V38.2687L129.758 37.3705C130.092 36.6186 130.614 36.0477 131.324 35.6578C132.048 35.2679 132.946 35.073 134.019 35.073V37.5585C133.907 37.5307 133.803 37.5167 133.705 37.5167C133.608 37.5028 133.51 37.4958 133.413 37.4958C132.424 37.4958 131.637 37.7883 131.053 38.3731C130.468 38.944 130.175 39.8004 130.175 40.9422V46.3519H127.564Z" fill="black"/>
<path d="M139.991 46.4981C139.058 46.4981 138.159 46.3798 137.296 46.1431C136.447 45.8924 135.771 45.593 135.27 45.2449L136.273 43.2607C136.774 43.5809 137.373 43.8455 138.069 44.0544C138.765 44.2632 139.461 44.3677 140.158 44.3677C140.979 44.3677 141.571 44.2563 141.933 44.0335C142.309 43.8107 142.497 43.5113 142.497 43.1353C142.497 42.829 142.372 42.5992 142.121 42.4461C141.87 42.279 141.543 42.1536 141.139 42.0701C140.736 41.9865 140.283 41.91 139.782 41.8403C139.294 41.7707 138.8 41.6802 138.299 41.5688C137.811 41.4435 137.366 41.2694 136.962 41.0466C136.558 40.8099 136.231 40.4966 135.98 40.1067C135.73 39.7168 135.604 39.2016 135.604 38.5611C135.604 37.8509 135.806 37.2382 136.21 36.723C136.614 36.1939 137.178 35.7901 137.902 35.5116C138.64 35.2192 139.51 35.073 140.513 35.073C141.265 35.073 142.024 35.1565 142.789 35.3236C143.555 35.4907 144.189 35.7274 144.69 36.0338L143.688 38.018C143.158 37.6978 142.622 37.4819 142.079 37.3705C141.55 37.2452 141.021 37.1825 140.492 37.1825C139.698 37.1825 139.106 37.3009 138.716 37.5376C138.341 37.7743 138.153 38.0737 138.153 38.4358C138.153 38.77 138.278 39.0206 138.528 39.1877C138.779 39.3548 139.106 39.4871 139.51 39.5845C139.914 39.682 140.36 39.7656 140.847 39.8352C141.348 39.8909 141.843 39.9814 142.33 40.1067C142.817 40.232 143.263 40.4061 143.667 40.6289C144.084 40.8378 144.419 41.1371 144.669 41.527C144.92 41.9169 145.045 42.4252 145.045 43.0518C145.045 43.748 144.836 44.3537 144.419 44.869C144.015 45.3842 143.437 45.788 142.685 46.0804C141.933 46.3589 141.035 46.4981 139.991 46.4981Z" fill="black"/>
<path d="M147.503 46.3519V35.1983H150.113V46.3519H147.503ZM148.818 33.3602C148.331 33.3602 147.927 33.2071 147.607 32.9007C147.301 32.5944 147.147 32.2254 147.147 31.7937C147.147 31.3481 147.301 30.9791 147.607 30.6867C147.927 30.3803 148.331 30.2272 148.818 30.2272C149.306 30.2272 149.703 30.3734 150.009 30.6658C150.329 30.9443 150.489 31.2994 150.489 31.731C150.489 32.1906 150.336 32.5804 150.03 32.9007C149.724 33.2071 149.32 33.3602 148.818 33.3602Z" fill="black"/>
<path d="M157.947 46.4981C156.722 46.4981 155.775 46.1848 155.107 45.5582C154.438 44.9177 154.104 43.9778 154.104 42.7385V32.7336H156.715V42.6758C156.715 43.205 156.847 43.6157 157.112 43.9081C157.39 44.2006 157.773 44.3468 158.261 44.3468C158.845 44.3468 159.333 44.1936 159.723 43.8873L160.454 45.7462C160.147 45.9968 159.771 46.1848 159.326 46.3102C158.88 46.4355 158.421 46.4981 157.947 46.4981ZM152.266 37.3705V35.2818H159.702V37.3705H152.266Z" fill="black"/>
<path d="M163.525 50.5502C162.982 50.5502 162.439 50.4597 161.896 50.2787C161.353 50.0977 160.901 49.847 160.539 49.5267L161.583 47.6051C161.848 47.8419 162.147 48.0298 162.481 48.1691C162.815 48.3083 163.156 48.378 163.505 48.378C163.978 48.378 164.361 48.2596 164.653 48.0229C164.946 47.7862 165.217 47.3893 165.468 46.8323L166.115 45.3702L166.324 45.0569L170.544 35.1983H173.05L167.828 47.2501C167.48 48.0855 167.09 48.747 166.659 49.2343C166.241 49.7217 165.767 50.0628 165.238 50.2578C164.723 50.4527 164.152 50.5502 163.525 50.5502ZM165.823 46.7488L160.789 35.1983H163.505L167.598 44.8272L165.823 46.7488Z" fill="black"/>
<path d="M174.781 47C174.289 47 173.869 46.8318 173.521 46.4954C173.174 46.1444 173 45.7057 173 45.1792C173 44.6234 173.174 44.1846 173.521 43.8629C173.869 43.5265 174.289 43.3583 174.781 43.3583C175.273 43.3583 175.693 43.5265 176.041 43.8629C176.388 44.1846 176.562 44.6234 176.562 45.1792C176.562 45.7057 176.388 46.1444 176.041 46.4954C175.693 46.8318 175.273 47 174.781 47Z" fill="#FA5E78"/>
<path d="M179.432 46.8464V35.1316H182.017V38.3565L181.713 37.4132C182.061 36.6234 182.604 36.0238 183.342 35.6143C184.095 35.2048 185.029 35 186.144 35V37.6106C186.028 37.5814 185.92 37.5667 185.818 37.5667C185.717 37.5521 185.615 37.5448 185.514 37.5448C184.486 37.5448 183.668 37.8519 183.06 38.4662C182.451 39.0658 182.147 39.9653 182.147 41.1645V46.8464H179.432Z" fill="#FA5E78"/>
<path d="M193.679 47C192.695 47 191.826 46.8172 191.073 46.4516C190.32 46.0713 189.733 45.5009 189.313 44.7404C188.894 43.9653 188.684 42.9927 188.684 41.8227V35.1316H191.399V41.4497C191.399 42.5027 191.63 43.2925 192.094 43.819C192.572 44.3309 193.245 44.5868 194.114 44.5868C194.751 44.5868 195.301 44.4552 195.764 44.192C196.242 43.9287 196.612 43.5338 196.872 43.0073C197.147 42.4808 197.285 41.83 197.285 41.0548V35.1316H200V46.8464H197.415V43.6874L197.871 44.6527C197.48 45.4132 196.908 45.9982 196.155 46.4077C195.402 46.8026 194.577 47 193.679 47Z" fill="#FA5E78"/>
</g>
<defs>
<clipPath id="clip0_107_272">
<rect width="216" height="61" fill="white"/>
</clipPath>
</defs>
</svg>
