<svg width="180" height="61" viewBox="0 0 180 61" fill="none" xmlns="http://www.w3.org/2000/svg">
<g clip-path="url(#clip0_213_20)">
<path d="M3.25884 26.5838C3.25884 26.5838 1.85111 19.5538 4.98416 18.2176C8.1172 16.8814 6.93551 14.8413 6.93551 14.8413C6.93551 14.8413 7.53351 9.21327 11.5879 7.86277C15.6422 6.51227 19.3905 6.43788 19.3905 6.43788C19.3905 6.43788 23.0786 2.53516 26.0314 2.53516C28.9841 2.53516 32.1086 4.63531 32.1086 4.63531C32.1086 4.63531 35.0528 4.11742 37.8111 6.24904C40.5693 8.38065 43.2131 14.7269 43.2131 14.7269C43.2131 14.7269 46.6952 14.3578 48.9899 17.9171C51.2846 21.4765 51.7281 22.6467 50.7524 25.1589C49.7767 27.6711 47.751 29.6997 47.751 29.6997L3.5192 29.0244L3.25884 26.5838Z" fill="#FA5E78"/>
<path d="M41.7853 47.3965C41.3934 47.7341 41.2102 48.2492 41.2932 48.7613L42.6466 56.7384L34.9327 52.0861C34.5665 51.8658 34.1201 51.8143 33.7138 51.9487C31.3991 52.7012 28.9728 53.0818 26.5007 53.0818C13.9742 53.0818 3.71381 43.1905 3.11868 30.81H3.38477H3.38763H49.8855C49.5736 37.1991 46.6609 43.1905 41.7853 47.3965ZM4.56074 19.9516C5.339 19.0446 6.31468 18.3894 7.45917 18.0031C9.84257 17.1991 12.5235 17.7141 13.9799 18.3779C12.5378 20.9301 12.5894 23.8228 12.5951 23.9745C12.6151 24.7899 13.2932 25.4337 14.1087 25.4108C14.9213 25.3879 15.5622 24.7041 15.545 23.9001C15.545 23.8486 15.5078 20.6411 17.3104 18.8014C18.1773 17.9173 19.3304 17.4881 20.8411 17.4881C21.6566 17.4881 22.3175 16.8271 22.3175 16.0117C22.3175 15.1962 21.6566 14.5353 20.8411 14.5353C18.907 14.5353 17.2646 15.0532 15.9427 16.0775C14.2946 15.1161 11.3104 14.3092 8.28034 14.7785C8.22598 12.6612 8.89264 10.9359 10.2746 9.64258C14.0343 6.11182 19.07 7.52241 19.2818 7.58536C20.0028 7.79423 20.7725 7.43085 21.0615 6.73557C21.1158 6.60968 22.4978 3.47091 25.7138 3.07892C27.3705 2.87577 29.1759 3.70553 30.555 4.85861C29.3304 5.56819 28.5493 6.29208 28.5007 6.33786C27.9055 6.8958 27.8769 7.82856 28.4348 8.4237C28.9928 9.01883 29.9255 9.04744 30.5207 8.49236C30.5293 8.48378 31.8111 7.30781 33.5221 6.72984C35.0185 6.22054 36.3061 6.32355 37.4678 7.04458C39.6881 8.42369 41.2503 10.8729 42.1201 14.3321C41.1816 14.5639 40.3376 14.8786 39.6423 15.1905C38.6294 14.6812 37.6337 14.4523 36.9212 14.4065C36.1058 14.3522 35.4048 14.9702 35.3504 15.7828C35.2904 16.5954 35.9084 17.2935 36.7181 17.3507C36.8955 17.365 37.7653 17.4652 38.6666 18.0031C38.7467 18.066 38.8326 18.1204 38.9213 18.1662C39.6766 18.6898 40.412 19.5482 40.7324 20.9502C40.9155 21.7456 41.7081 22.2406 42.5035 22.0575C43.1873 21.9001 43.648 21.2935 43.648 20.6211C43.648 20.5124 43.6366 20.4008 43.6108 20.2892C43.339 19.1018 42.8583 18.1376 42.266 17.3565C42.8125 17.1905 43.4162 17.0503 44.04 16.9845C45.1187 16.8729 46.0915 17.0017 46.927 17.3708C48.4663 18.0489 49.6452 19.5567 50.0085 21.3135C50.3204 22.8185 50.1773 25.1476 47.874 27.86H29.7195C29.9399 26.9444 30.0371 26.0632 30.0371 25.2306C30.0371 21.2191 27.8941 18.335 27.771 18.1719C27.2789 17.5224 26.3519 17.3965 25.7024 17.8886C25.0529 18.3808 24.927 19.305 25.4163 19.9516C25.5393 20.1175 28.0658 23.5939 26.6494 27.8572H4.33185C3.44773 25.5768 2.6523 22.1776 4.56074 19.9516ZM52.864 29.6655C52.864 29.5339 52.864 29.3994 52.8583 29.2735C52.8297 28.5181 52.2346 27.9115 51.4906 27.8572C52.5379 26.1118 53.0786 24.2892 53.0786 22.4952C53.0786 21.8944 53.0185 21.2992 52.8955 20.7098C52.3433 18.0346 50.5092 15.717 48.1115 14.664C47.1759 14.252 46.1573 14.0317 45.07 13.9974C44.0343 9.56819 42.0028 6.3865 39.0214 4.53528C37.3905 3.52527 35.5221 3.2277 33.5679 3.65689C31.6137 1.53099 28.5178 -0.237252 25.3562 0.149014C21.8569 0.575337 19.8369 3.02741 18.9241 4.49522C16.7524 4.14043 12.0543 3.91726 8.25173 7.48808C5.5965 9.97735 5.15302 13.1333 5.37619 15.6712C4.20595 16.2377 3.17877 17.0274 2.31754 18.0288C-0.246125 21.0274 0.266031 24.9874 1.22168 27.9087C0.620823 28.0775 0.171616 28.6183 0.145865 29.2706C0.140142 29.3994 0.140137 29.531 0.140137 29.6655C0.140137 44.2034 11.9656 56.0288 26.5035 56.0288C29.0557 56.0288 31.565 55.6655 33.977 54.953L43.8798 60.9244C44.3748 61.222 44.9956 61.2048 45.4735 60.8815C45.9513 60.5582 46.1945 59.9831 46.0972 59.4137L44.3433 49.0703C49.771 44.0861 52.864 37.0617 52.864 29.6655Z" fill="black"/>
<path d="M19.5994 9.32798C14.1773 8.11195 11.771 10.8988 11.6709 11.019C11.1473 11.6456 11.2303 12.5755 11.8569 13.0991C12.4749 13.6141 13.3905 13.5397 13.917 12.9388C14.0142 12.8387 15.4391 11.4195 18.9527 12.2092C19.7481 12.3866 20.5378 11.8888 20.7152 11.0934C20.741 10.9846 20.7524 10.8759 20.7524 10.7672C20.7524 10.0919 20.286 9.48248 19.5994 9.32798Z" fill="white"/>
<path d="M9.00137 18.8872C7.3533 19.3192 6.17161 20.1604 5.48206 21.3908C4.4606 23.2162 4.99851 25.1332 5.06432 25.345C5.3018 26.1261 6.12584 26.5639 6.90695 26.3292C7.68235 26.0946 8.12297 25.2763 7.89407 24.5009C7.88263 24.4551 7.648 23.5453 8.07147 22.8128C8.35473 22.3178 8.92125 21.9573 9.75101 21.7398C10.4148 21.5653 10.8526 20.9673 10.8526 20.3121C10.8526 20.189 10.8383 20.0631 10.8039 19.9372C10.5979 19.1533 9.79107 18.6812 9.00137 18.8872Z" fill="white"/>
<path d="M35.8397 8.66406C31.3332 8.66406 29.2188 12.3465 28.7295 14.2921C28.5292 15.0818 29.0099 15.8858 29.8025 16.0832C30.5922 16.2807 31.3905 15.8057 31.5907 15.0189C31.6852 14.6641 32.5922 11.614 35.8397 11.614C36.6551 11.614 37.3161 10.953 37.3161 10.1376C37.3161 9.325 36.6551 8.66406 35.8397 8.66406Z" fill="white"/>
<path d="M15.0156 39.4854C15.0156 38.0662 16.1658 36.916 17.5822 36.916C19.0013 36.916 20.1487 38.0662 20.1487 39.4854C20.1487 40.9017 18.9985 42.0519 17.5822 42.0519C16.163 42.0519 15.0156 40.9017 15.0156 39.4854Z" fill="black"/>
<path d="M24.3032 39.4854C24.3032 38.0662 25.4534 36.916 26.8726 36.916C28.2918 36.916 29.4391 38.0662 29.4391 39.4854C29.4391 40.9017 28.2889 42.0519 26.8726 42.0519C25.4534 42.0519 24.3032 40.9017 24.3032 39.4854Z" fill="black"/>
<path d="M33.5908 39.4854C33.5908 38.0662 34.741 36.916 36.1602 36.916C37.5794 36.916 38.7267 38.0662 38.7267 39.4854C38.7267 40.9017 37.5765 42.0519 36.1602 42.0519C34.741 42.0519 33.5908 40.9017 33.5908 39.4854Z" fill="black"/>
<path d="M65.1909 25.4646V10.8437H72.0418C73.7963 10.8437 75.1331 11.1918 76.0521 11.8881C76.9711 12.5704 77.4306 13.4894 77.4306 14.6451C77.4306 15.4249 77.2496 16.0933 76.8876 16.6503C76.5255 17.1933 76.0382 17.618 75.4255 17.9244C74.8267 18.2168 74.1723 18.363 73.4621 18.363L73.8381 17.6111C74.6596 17.6111 75.3976 17.7643 76.0521 18.0706C76.7066 18.363 77.2218 18.7947 77.5977 19.3656C77.9876 19.9365 78.1826 20.6467 78.1826 21.4961C78.1826 22.7493 77.7022 23.724 76.7414 24.4202C75.7806 25.1165 74.3533 25.4646 72.4595 25.4646H65.1909ZM67.9062 23.3341H72.2924C73.3089 23.3341 74.0887 23.167 74.6318 22.8328C75.1749 22.4986 75.4464 21.9625 75.4464 21.2245C75.4464 20.5005 75.1749 19.9713 74.6318 19.6371C74.0887 19.289 73.3089 19.115 72.2924 19.115H67.6973V17.0054H71.7494C72.6963 17.0054 73.4203 16.8383 73.9216 16.5041C74.4368 16.1699 74.6945 15.6686 74.6945 15.0002C74.6945 14.3179 74.4368 13.8097 73.9216 13.4755C73.4203 13.1413 72.6963 12.9742 71.7494 12.9742H67.9062V23.3341Z" fill="black"/>
<path d="M81.0387 25.4646V14.3109H83.5243V17.3813L83.2318 16.4832C83.566 15.7313 84.0882 15.1603 84.7984 14.7705C85.5224 14.3806 86.4206 14.1856 87.4928 14.1856V16.6712C87.3814 16.6433 87.277 16.6294 87.1795 16.6294C87.082 16.6155 86.9845 16.6085 86.8871 16.6085C85.8984 16.6085 85.1117 16.9009 84.5268 17.4858C83.942 18.0567 83.6496 18.913 83.6496 20.0549V25.4646H81.0387Z" fill="black"/>
<path d="M95.9928 25.4646V23.2088L95.8466 22.7284V18.7808C95.8466 18.0149 95.6168 17.4231 95.1573 17.0054C94.6978 16.5737 94.0016 16.3579 93.0686 16.3579C92.442 16.3579 91.8224 16.4553 91.2097 16.6503C90.6109 16.8452 90.1027 17.1168 89.6849 17.4649L88.6615 15.5642C89.2602 15.1046 89.9704 14.7635 90.7919 14.5407C91.6274 14.304 92.4908 14.1856 93.3819 14.1856C94.9972 14.1856 96.2435 14.5755 97.1207 15.3553C98.0119 16.1211 98.4575 17.3117 98.4575 18.927V25.4646H95.9928ZM92.4838 25.6108C91.6483 25.6108 90.9173 25.4716 90.2907 25.1931C89.6641 24.9006 89.1767 24.5038 88.8286 24.0025C88.4944 23.4873 88.3273 22.9094 88.3273 22.2689C88.3273 21.6423 88.4735 21.0783 88.7659 20.577C89.0723 20.0758 89.5666 19.6789 90.2489 19.3865C90.9312 19.0941 91.8363 18.9479 92.9642 18.9479H96.2017V20.6815H93.1522C92.261 20.6815 91.6622 20.8277 91.3559 21.1201C91.0496 21.3986 90.8964 21.7467 90.8964 22.1644C90.8964 22.6379 91.0844 23.0139 91.4603 23.2923C91.8363 23.5708 92.3585 23.7101 93.0269 23.7101C93.6674 23.7101 94.2383 23.5639 94.7396 23.2715C95.2548 22.979 95.6238 22.5474 95.8466 21.9765L96.2852 23.543C96.0346 24.1974 95.582 24.7057 94.9276 25.0677C94.287 25.4298 93.4724 25.6108 92.4838 25.6108Z" fill="black"/>
<path d="M102.017 25.4646V14.3109H104.628V25.4646H102.017ZM103.333 12.4729C102.846 12.4729 102.442 12.3197 102.122 12.0134C101.815 11.707 101.662 11.338 101.662 10.9064C101.662 10.4608 101.815 10.0918 102.122 9.79936C102.442 9.49301 102.846 9.33984 103.333 9.33984C103.82 9.33984 104.217 9.48605 104.524 9.77847C104.844 10.057 105.004 10.412 105.004 10.8437C105.004 11.3032 104.851 11.6931 104.544 12.0134C104.238 12.3197 103.834 12.4729 103.333 12.4729Z" fill="black"/>
<path d="M114.592 14.1856C115.484 14.1856 116.277 14.3597 116.973 14.7078C117.684 15.0559 118.241 15.592 118.644 16.3161C119.048 17.0263 119.25 17.9453 119.25 19.0732V25.4646H116.639V19.4074C116.639 18.4187 116.403 17.6807 115.929 17.1933C115.47 16.706 114.822 16.4623 113.987 16.4623C113.374 16.4623 112.831 16.5876 112.357 16.8383C111.884 17.0889 111.515 17.4649 111.25 17.9662C111 18.4535 110.874 19.0732 110.874 19.8251V25.4646H108.264V14.3109H110.749V17.3187L110.311 16.3996C110.7 15.6895 111.264 15.1464 112.002 14.7705C112.754 14.3806 113.618 14.1856 114.592 14.1856Z" fill="black"/>
<path d="M71.4779 46.5604C69.4727 46.5604 67.8992 45.9965 66.7574 44.8686C65.6295 43.7407 65.0656 42.1115 65.0656 39.981V31.7307H67.7809V39.8766C67.7809 41.3805 68.1011 42.4736 68.7417 43.1559C69.3961 43.8382 70.3151 44.1793 71.4987 44.1793C72.6823 44.1793 73.5944 43.8382 74.2349 43.1559C74.8755 42.4736 75.1957 41.3805 75.1957 39.8766V31.7307H77.8693V39.981C77.8693 42.1115 77.2984 43.7407 76.1565 44.8686C75.0286 45.9965 73.4691 46.5604 71.4779 46.5604Z" fill="black"/>
<path d="M87.959 35.0726C88.8502 35.0726 89.6439 35.2467 90.3401 35.5948C91.0503 35.9429 91.6072 36.479 92.0111 37.2031C92.4149 37.9132 92.6168 38.8323 92.6168 39.9602V46.3516H90.0059V40.2943C90.0059 39.3057 89.7692 38.5677 89.2958 38.0803C88.8362 37.593 88.1887 37.3493 87.3533 37.3493C86.7406 37.3493 86.1975 37.4746 85.7241 37.7252C85.2506 37.9759 84.8816 38.3519 84.6171 38.8531C84.3664 39.3405 84.2411 39.9602 84.2411 40.7121V46.3516H81.6302V35.1979H84.1158V38.2057L83.6772 37.2866C84.067 36.5765 84.631 36.0334 85.369 35.6574C86.1209 35.2675 86.9843 35.0726 87.959 35.0726Z" fill="black"/>
<path d="M96.1377 46.3516V35.1979H98.7486V46.3516H96.1377ZM97.4536 33.3599C96.9662 33.3599 96.5624 33.2067 96.2421 32.9004C95.9358 32.594 95.7826 32.225 95.7826 31.7933C95.7826 31.3478 95.9358 30.9788 96.2421 30.6863C96.5624 30.38 96.9662 30.2268 97.4536 30.2268C97.941 30.2268 98.3378 30.373 98.6441 30.6654C98.9644 30.9439 99.1245 31.299 99.1245 31.7307C99.1245 32.1902 98.9714 32.5801 98.665 32.9004C98.3587 33.2067 97.9549 33.3599 97.4536 33.3599Z" fill="black"/>
<path d="M105.35 46.3516L100.567 35.1979H103.282L107.397 45.0357H106.06L110.321 35.1979H112.828L108.045 46.3516H105.35Z" fill="black"/>
<path d="M119.605 46.4978C118.366 46.4978 117.28 46.2541 116.347 45.7667C115.428 45.2655 114.711 44.5831 114.195 43.7198C113.694 42.8565 113.443 41.8748 113.443 40.7747C113.443 39.6608 113.687 38.6791 114.174 37.8297C114.676 36.9664 115.358 36.291 116.221 35.8036C117.099 35.3163 118.094 35.0726 119.208 35.0726C120.294 35.0726 121.262 35.3093 122.111 35.7828C122.961 36.2562 123.629 36.9246 124.117 37.7879C124.604 38.6512 124.848 39.6677 124.848 40.8374C124.848 40.9488 124.841 41.0741 124.827 41.2134C124.827 41.3526 124.82 41.4849 124.806 41.6102H115.511V39.8766H123.427L122.404 40.4197C122.418 39.7791 122.286 39.2152 122.007 38.7278C121.729 38.2405 121.346 37.8575 120.858 37.579C120.385 37.3005 119.835 37.1613 119.208 37.1613C118.568 37.1613 118.004 37.3005 117.516 37.579C117.043 37.8575 116.667 38.2474 116.388 38.7487C116.124 39.2361 115.992 39.8139 115.992 40.4823V40.9001C115.992 41.5685 116.145 42.1603 116.451 42.6755C116.757 43.1907 117.189 43.5875 117.746 43.866C118.303 44.1445 118.944 44.2838 119.668 44.2838C120.294 44.2838 120.858 44.1863 121.36 43.9913C121.861 43.7964 122.306 43.4901 122.696 43.0723L124.096 44.6806C123.594 45.2654 122.961 45.718 122.195 46.0383C121.443 46.3446 120.58 46.4978 119.605 46.4978Z" fill="black"/>
<path d="M127.564 46.3516V35.1979H130.05V38.2683L129.758 37.3702C130.092 36.6182 130.614 36.0473 131.324 35.6574C132.048 35.2675 132.946 35.0726 134.019 35.0726V37.5582C133.907 37.5303 133.803 37.5164 133.705 37.5164C133.608 37.5025 133.51 37.4955 133.413 37.4955C132.424 37.4955 131.637 37.7879 131.053 38.3727C130.468 38.9437 130.175 39.8 130.175 40.9418V46.3516H127.564Z" fill="black"/>
<path d="M139.991 46.4978C139.058 46.4978 138.159 46.3794 137.296 46.1427C136.447 45.8921 135.771 45.5927 135.27 45.2446L136.273 43.2603C136.774 43.5806 137.373 43.8451 138.069 44.054C138.765 44.2629 139.461 44.3673 140.158 44.3673C140.979 44.3673 141.571 44.2559 141.933 44.0331C142.309 43.8103 142.497 43.5109 142.497 43.135C142.497 42.8286 142.372 42.5989 142.121 42.4457C141.87 42.2786 141.543 42.1533 141.139 42.0697C140.736 41.9862 140.283 41.9096 139.782 41.84C139.294 41.7704 138.8 41.6799 138.299 41.5685C137.811 41.4431 137.366 41.2691 136.962 41.0463C136.558 40.8096 136.231 40.4963 135.98 40.1064C135.73 39.7165 135.604 39.2013 135.604 38.5607C135.604 37.8506 135.806 37.2379 136.21 36.7227C136.614 36.1935 137.178 35.7897 137.902 35.5112C138.64 35.2188 139.51 35.0726 140.513 35.0726C141.265 35.0726 142.024 35.1562 142.789 35.3232C143.555 35.4903 144.189 35.7271 144.69 36.0334L143.688 38.0177C143.158 37.6974 142.622 37.4816 142.079 37.3702C141.55 37.2448 141.021 37.1822 140.492 37.1822C139.698 37.1822 139.106 37.3005 138.716 37.5373C138.341 37.774 138.153 38.0734 138.153 38.4354C138.153 38.7696 138.278 39.0202 138.528 39.1873C138.779 39.3544 139.106 39.4867 139.51 39.5842C139.914 39.6817 140.36 39.7652 140.847 39.8348C141.348 39.8905 141.843 39.981 142.33 40.1064C142.817 40.2317 143.263 40.4057 143.667 40.6285C144.084 40.8374 144.419 41.1368 144.669 41.5267C144.92 41.9166 145.045 42.4248 145.045 43.0514C145.045 43.7477 144.836 44.3534 144.419 44.8686C144.015 45.3838 143.437 45.7876 142.685 46.08C141.933 46.3585 141.035 46.4978 139.991 46.4978Z" fill="black"/>
<path d="M147.503 46.3516V35.1979H150.113V46.3516H147.503ZM148.818 33.3599C148.331 33.3599 147.927 33.2067 147.607 32.9004C147.301 32.594 147.147 32.225 147.147 31.7933C147.147 31.3478 147.301 30.9788 147.607 30.6863C147.927 30.38 148.331 30.2268 148.818 30.2268C149.306 30.2268 149.703 30.373 150.009 30.6654C150.329 30.9439 150.489 31.299 150.489 31.7307C150.489 32.1902 150.336 32.5801 150.03 32.9004C149.724 33.2067 149.32 33.3599 148.818 33.3599Z" fill="black"/>
<path d="M157.947 46.4978C156.722 46.4978 155.775 46.1845 155.107 45.5579C154.438 44.9173 154.104 43.9774 154.104 42.7381V32.7333H156.715V42.6755C156.715 43.2046 156.847 43.6154 157.112 43.9078C157.39 44.2002 157.773 44.3464 158.261 44.3464C158.845 44.3464 159.333 44.1932 159.723 43.8869L160.454 45.7458C160.147 45.9965 159.771 46.1845 159.326 46.3098C158.88 46.4351 158.421 46.4978 157.947 46.4978ZM152.266 37.3702V35.2815H159.702V37.3702H152.266Z" fill="black"/>
<path d="M163.525 50.5499C162.982 50.5499 162.439 50.4593 161.896 50.2783C161.353 50.0973 160.901 49.8467 160.539 49.5264L161.583 47.6048C161.848 47.8415 162.147 48.0295 162.481 48.1687C162.815 48.308 163.156 48.3776 163.505 48.3776C163.978 48.3776 164.361 48.2592 164.653 48.0225C164.946 47.7858 165.217 47.389 165.468 46.832L166.115 45.3699L166.324 45.0566L170.544 35.1979H173.05L167.828 47.2497C167.48 48.0852 167.09 48.7466 166.659 49.234C166.241 49.7213 165.767 50.0625 165.238 50.2574C164.723 50.4524 164.152 50.5499 163.525 50.5499ZM165.823 46.7484L160.789 35.1979H163.505L167.598 44.8268L165.823 46.7484Z" fill="black"/>
</g>
<defs>
<clipPath id="clip0_213_20">
<rect width="180" height="61" fill="white"/>
</clipPath>
</defs>
</svg>
