<svg width="21" height="24" viewBox="0 0 21 24" fill="none" xmlns="http://www.w3.org/2000/svg">
<path d="M1.47609 2.97609C0 4.45228 0 6.82837 0 11.58V12.42C0 17.1717 0 19.5478 1.47609 21.0239C2.95228 22.5 5.32837 22.5 10.08 22.5H10.92C15.6717 22.5 18.0478 22.5 19.5239 21.0239C21 19.5478 21 17.1717 21 12.42V11.58C21 6.82833 21 4.45223 19.5239 2.97609C18.0478 1.5 15.6717 1.5 10.92 1.5H10.08C5.32833 1.5 2.95223 1.5 1.47609 2.97609ZM3.54375 7.88756H5.94127C6.02002 11.895 7.78748 13.5925 9.1875 13.9425V7.88752H11.445V11.3438C12.8275 11.195 14.28 9.62002 14.77 7.88752H17.0275C16.8428 8.78602 16.4747 9.63676 15.9463 10.3865C15.4178 11.1363 14.7403 11.769 13.9562 12.245C14.8317 12.6796 15.605 13.2952 16.2249 14.0508C16.8449 14.8065 17.2974 15.6852 17.5525 16.6288H15.0675C14.8385 15.8092 14.3726 15.0755 13.7281 14.5197C13.0836 13.964 12.2894 13.611 11.445 13.505V16.6288H11.1737C6.38752 16.6288 3.65752 13.3475 3.54375 7.88752V7.88756Z" fill="#111111" fill-opacity="0.3"/>
</svg>
