<svg width="118" height="28" viewBox="0 0 118 28" fill="none" xmlns="http://www.w3.org/2000/svg">
<path d="M16.889 20.622H0.999878V21.1376H16.889V20.622Z" fill="#393185"/>
<path d="M117.52 20.622H34.367V21.1376H117.52V20.622Z" fill="#393185"/>
<path d="M0.999878 6.18661L3.64806 3.60886V17.5287H0.999878V11.8577V6.18661Z" fill="#222222"/>
<path d="M3.64806 9.27992H4.04529L8.44421 3.60886H12.5048L7.0907 10.5688L13.1815 17.5287H9.12097L4.04529 11.8577H3.64806V9.27992Z" fill="#222222"/>
<path d="M46.5486 3.60886H49.1968V17.5287H46.5486V3.60886Z" fill="#222222"/>
<path d="M39.6633 9.27992H46.5486V11.8577H39.6633V9.27992Z" fill="#222222"/>
<path d="M39.6633 3.60886V17.5287H37.0151V6.18661L39.6633 3.60886Z" fill="#222222"/>
<path d="M55.5524 6.18661H58.2006V17.5287H55.5524V6.18661Z" fill="#222222"/>
<path d="M51.3153 6.18661L53.9635 3.60886H62.9673V6.18661H51.3153Z" fill="#222222"/>
<path d="M110.105 6.18661H112.753V17.5287H110.105V6.18661Z" fill="#222222"/>
<path d="M105.868 6.18661L108.516 3.60886H117.52V6.18661H105.868Z" fill="#222222"/>
<path d="M67.7341 3.60886V17.5287H65.0859V6.18661L67.7341 3.60886Z" fill="#222222"/>
<path d="M76.2082 8.24882C76.2082 10.8114 74.0743 12.8888 71.4415 12.8888H67.7341V10.311H71.4415C72.6115 10.311 73.5601 9.38777 73.5601 8.24882C73.5601 7.10986 72.6115 6.18661 71.4415 6.18661H67.7341V3.60886H71.4415C74.0743 3.60886 76.2082 5.68622 76.2082 8.24882Z" fill="#222222"/>
<path d="M104.411 4.71205L104.353 4.67376C103.195 3.91972 101.803 3.47997 100.307 3.47997C96.2846 3.47997 93.0242 6.65375 93.0242 10.5688C93.0242 14.4838 96.2846 17.6576 100.307 17.6576C101.803 17.6576 103.195 17.2179 104.353 16.4638L104.411 16.4256V13.8085L104.192 13.9935C103.54 14.5444 102.965 14.8782 102.36 15.0757C101.753 15.2736 101.108 15.3376 100.307 15.3376C97.6008 15.3376 95.4076 13.2025 95.4076 10.5688C95.4076 7.93505 97.6008 5.79995 100.307 5.79995C101.889 5.79995 103.158 6.30426 104.194 7.14569L104.411 7.32206V4.71205Z" fill="#222222"/>
<path d="M3.45845 27.8851C3.14773 27.8851 2.86032 27.836 2.5962 27.7377C2.33598 27.6356 2.10876 27.4938 1.91456 27.3123C1.72425 27.1271 1.57471 26.9116 1.46596 26.6658C1.35721 26.4201 1.30283 26.1498 1.30283 25.8549C1.30283 25.56 1.35721 25.2897 1.46596 25.0439C1.57471 24.7982 1.72618 24.5846 1.92039 24.4031C2.11459 24.2179 2.3418 24.0761 2.60203 23.9778C2.86614 23.8757 3.15355 23.8246 3.46428 23.8246C3.77888 23.8246 4.06824 23.8776 4.33235 23.9834C4.60035 24.0855 4.82756 24.2386 5.01399 24.4428L4.6353 24.8001C4.47994 24.6413 4.30516 24.5241 4.11096 24.4485C3.91676 24.3691 3.70897 24.3294 3.48758 24.3294C3.25842 24.3294 3.0448 24.3672 2.84672 24.4428C2.65252 24.5184 2.48356 24.6243 2.33986 24.7604C2.19615 24.8965 2.08351 25.059 2.00195 25.2481C1.92427 25.4333 1.88543 25.6356 1.88543 25.8549C1.88543 26.0741 1.92427 26.2783 2.00195 26.4674C2.08351 26.6526 2.19615 26.8133 2.33986 26.9494C2.48356 27.0855 2.65252 27.1913 2.84672 27.267C3.0448 27.3426 3.25842 27.3804 3.48758 27.3804C3.70897 27.3804 3.91676 27.3426 4.11096 27.267C4.30516 27.1876 4.47994 27.0666 4.6353 26.904L5.01399 27.2613C4.82756 27.4655 4.60035 27.6205 4.33235 27.7263C4.06824 27.8322 3.77694 27.8851 3.45845 27.8851ZM7.65185 27.8398V23.87H8.12958L9.82995 26.6585L11.5087 23.87H11.9864L11.9922 27.8398H11.4329L11.4275 24.945L9.95311 27.3577H9.68512L8.21114 24.963V27.8398H7.65185ZM14.5317 27.8398L16.3786 23.87H16.9553L18.808 27.8398H18.1963L17.7482 26.8473L17.5434 26.3936L16.664 24.4457L15.7846 26.3936L15.5798 26.8473L15.1318 27.8398H14.5317ZM15.6175 26.8473L15.7846 26.3936H17.5434L17.7482 26.8473H15.5798H15.6175ZM28.7554 27.8851C28.4447 27.8851 28.1553 27.8341 27.8873 27.732C27.6232 27.6299 27.394 27.4881 27.1999 27.3067C27.0057 27.1214 26.8542 26.9059 26.7454 26.6602C26.6367 26.4144 26.5823 26.146 26.5823 25.8549C26.5823 25.5637 26.6367 25.2954 26.7454 25.0496C26.8542 24.8038 27.0057 24.5902 27.1999 24.4088C27.394 24.2235 27.6232 24.0798 27.8873 23.9778C28.1514 23.8757 28.4408 23.8246 28.7554 23.8246C29.0661 23.8246 29.3516 23.8757 29.6118 23.9778C29.8759 24.0761 30.1051 24.2179 30.2993 24.4031C30.4974 24.5846 30.6489 24.7982 30.7537 25.0439C30.8625 25.2897 30.9169 25.56 30.9169 25.8549C30.9169 26.1498 30.8625 26.4201 30.7537 26.6658C30.6489 26.9116 30.4974 27.1271 30.2993 27.3123C30.1051 27.4938 29.8759 27.6356 29.6118 27.7377C29.3516 27.836 29.0661 27.8851 28.7554 27.8851ZM28.7554 27.3804C28.9807 27.3804 29.1884 27.3426 29.3788 27.267C29.573 27.1913 29.74 27.0855 29.8798 26.9494C30.0235 26.8095 30.1342 26.6469 30.2119 26.4617C30.2935 26.2764 30.3343 26.0741 30.3343 25.8549C30.3343 25.6356 30.2935 25.4333 30.2119 25.2481C30.1342 25.0628 30.0235 24.9021 29.8798 24.766C29.74 24.6262 29.573 24.5184 29.3788 24.4428C29.1884 24.3672 28.9807 24.3294 28.7554 24.3294C28.5262 24.3294 28.3145 24.3672 28.1204 24.4428C27.93 24.5184 27.763 24.6262 27.6193 24.766C27.4756 24.9021 27.363 25.0628 27.2814 25.2481C27.2037 25.4333 27.1649 25.6356 27.1649 25.8549C27.1649 26.0741 27.2037 26.2764 27.2814 26.4617C27.363 26.6469 27.4756 26.8095 27.6193 26.9494C27.763 27.0855 27.93 27.1913 28.1204 27.267C28.3145 27.3426 28.5262 27.3804 28.7554 27.3804ZM42.6582 23.87H43.2408V27.8398H42.6582V26.0704V25.577V23.87ZM40.3162 27.8398H39.7336V23.87H40.3162V25.577V26.0704V27.8398ZM42.6582 26.0704H40.3162V25.577H42.6582V26.0704ZM48.1365 25.2537C48.6181 25.2537 48.989 25.3596 49.2492 25.5713C49.5094 25.7792 49.6396 26.0912 49.6396 26.5071C49.6396 26.9456 49.4978 27.2783 49.2143 27.5052C48.9346 27.7282 48.5404 27.8398 48.0316 27.8398H46.3479V23.87H46.9246V25.2537H48.1365ZM48.0083 27.3917C48.3462 27.3917 48.6045 27.318 48.7831 27.1706C48.9657 27.0231 49.057 26.8057 49.057 26.5184C49.057 26.2386 48.9676 26.0326 48.789 25.9002C48.6103 25.7679 48.3501 25.7018 48.0083 25.7018H46.9246V27.3917H48.0083ZM50.2862 27.8398V23.87H50.863V27.8398H50.2862ZM54.5519 25.5827H56.5969V26.0647H54.5519V25.5827ZM54.5519 27.3464H56.9289V27.8398H53.9693V23.87H56.8474V24.3634H54.5519V25.5827V26.0647V27.3464ZM63.0786 27.8398V23.87H63.5563L65.2567 26.6585L66.9354 23.87H67.4131L67.4189 27.8398H66.8596L66.8542 24.945L65.3798 27.3577H65.1118L63.6378 24.963V27.8398H63.0786ZM69.9585 27.8398L71.8054 23.87H72.3821L74.2348 27.8398H73.6231L73.1751 26.8473L72.9702 26.3936L72.0908 24.4457L71.2115 26.3936L71.0066 26.8473L70.5586 27.8398H69.9585ZM71.0066 26.8473L71.2115 26.3936H72.9702L73.1751 26.8473H71.0066ZM77.402 27.8398V24.3634H76.0096V23.87H79.3712V24.3634H77.973V27.8398H77.402ZM82.4971 25.5827H84.5421V26.0647H82.4971V25.5827ZM82.4971 27.3464H84.8741V27.8398H81.9145V23.87H84.7926V24.3634H82.4971V25.5827V26.0647V27.3464ZM87.6245 27.8398V23.87H89.215C89.572 23.87 89.8771 23.9248 90.1297 24.0345C90.3818 24.1441 90.5762 24.3029 90.7123 24.5108C90.8479 24.7188 90.9162 24.9664 90.9162 25.2537C90.9162 25.5411 90.8479 25.7887 90.7123 25.9967C90.5762 26.2008 90.3818 26.3596 90.1297 26.473C89.8771 26.5827 89.572 26.6375 89.215 26.6375H88.2071V27.8398H87.6245ZM88.2071 26.1441H89.1976C89.5704 26.1441 89.8517 26.0666 90.0423 25.9116C90.2362 25.7566 90.3336 25.5373 90.3336 25.2537C90.3336 24.9702 90.2362 24.7509 90.0423 24.5959C89.8517 24.4409 89.5704 24.3634 89.1976 24.3634H88.2071V26.1441ZM93.5618 27.8398V23.87H94.1385V26.9324L96.5505 23.87H97.0865V27.8398H96.5156V24.7831L94.0978 27.8398H93.5618ZM99.6277 27.8398L101.475 23.87H102.051L103.904 27.8398H103.292L102.844 26.8473L102.639 26.3936L101.76 24.4457L100.881 26.3936L100.676 26.8473L100.228 27.8398H99.6277ZM100.676 26.8473L100.881 26.3936H102.639L102.844 26.8473H100.676ZM106.251 27.8851C106.193 27.8851 106.134 27.8814 106.076 27.8738C106.018 27.8662 105.954 27.8549 105.884 27.8398L105.925 27.335C105.987 27.3501 106.049 27.3577 106.111 27.3577C106.282 27.3577 106.418 27.2916 106.519 27.1592C106.62 27.0269 106.694 26.8265 106.74 26.5581C106.791 26.2896 106.824 25.9513 106.839 25.543L106.903 23.87H109.776V27.8398H109.205V24.3634H107.399L107.358 25.526C107.346 25.9192 107.319 26.2632 107.276 26.5581C107.234 26.853 107.17 27.0988 107.084 27.2953C106.999 27.4919 106.888 27.6394 106.752 27.7377C106.62 27.836 106.453 27.8851 106.251 27.8851ZM114.67 25.2537C115.151 25.2537 115.523 25.3596 115.783 25.5713C116.043 25.7792 116.173 26.0912 116.173 26.5071C116.173 26.9456 116.031 27.2783 115.748 27.5052C115.468 27.7282 115.074 27.8398 114.565 27.8398H112.881V23.87H113.458V25.2537H114.67ZM114.542 27.3917C114.88 27.3917 115.138 27.318 115.317 27.1706C115.499 27.0231 115.59 26.8057 115.59 26.5184C115.59 26.2386 115.501 26.0326 115.322 25.9002C115.144 25.7679 114.883 25.7018 114.542 25.7018H113.458V27.3917H114.542ZM116.82 27.8398V23.87H117.396V27.8398H116.82Z" fill="#222222"/>
<path fill-rule="evenodd" clip-rule="evenodd" d="M79.9157 17.5287H77.2675L82.5639 3.60886H86.2713L91.5677 17.5287H88.9195L87.9387 14.951H80.8965L79.9157 17.5287ZM84.4176 5.69683L81.6812 12.8888H87.1541L84.4176 5.69683Z" fill="#222222"/>
<path d="M33.8374 8.40224C29.8651 4.27781 19.0076 4.79335 14.2408 9.9489C17.6835 14.0733 22.785 14.6237 29.6003 12.7844C28.0343 14.9862 23.1528 15.4075 19.9888 15.4375C18.102 15.4553 16.1244 15.2327 14.6702 14.0623C13.6194 13.2166 12.6837 11.9001 12.9167 9.9489C14.2408 -1.13546 30.3947 -0.877699 33.8374 8.40224Z" fill="#008DD2"/>
<path d="M33.8373 11.2378C33.0429 20.5177 20.3316 21.8066 15.3001 16.1355C22.4502 17.2223 26.658 16.7951 31.7188 12.9829C30.1855 10.0989 28.4842 8.77978 23.5094 7.11337C28.2761 6.85554 32.1732 7.11723 33.8373 11.2378Z" fill="#3A4E9B"/>
<path d="M25.8928 0.669C16.889 0.411165 20.8612 23.8688 29.8651 19.2288C24.5687 23.3532 16.3077 17.4955 15.5649 11.4956C14.8723 5.90131 18.7427 -2.42436 25.8928 0.669Z" fill="#393185"/>
<path d="M33.8374 8.40224C29.8651 4.27781 19.0076 4.79335 14.2408 9.9489C13.6273 10.6275 13.3632 11.022 13.051 11.7533C12.8954 11.2233 12.8361 10.6241 12.9167 9.9489C14.2408 -1.13546 30.3947 -0.877699 33.8374 8.40224Z" fill="#71C3EE"/>
<path d="M33.8373 11.2378C33.0429 20.5177 20.3316 21.8066 15.3001 16.1355C22.4502 17.2223 26.658 16.7951 31.7188 12.9829C32.406 12.4651 33.1091 11.885 33.8373 11.2378Z" fill="#00A0E3"/>
<path d="M35.4786 26.4447C35.265 26.49 35.0572 26.5127 34.8552 26.5127C34.3581 26.5127 33.9716 26.3955 33.6959 26.1611C33.424 25.9267 33.288 25.5921 33.288 25.1573V23.87H33.859V25.0949C33.859 25.3898 33.9522 25.6167 34.1386 25.7755C34.3251 25.9343 34.5853 26.0137 34.9193 26.0137C35.1174 26.0137 35.3194 25.9891 35.5252 25.9399C35.7043 25.898 35.879 25.8395 36.0496 25.7645V23.87H36.6263V27.8397H36.0496V26.2687C35.855 26.344 35.6647 26.4026 35.4786 26.4447Z" fill="#222222"/>
<path d="M21.1023 26.9891L20.8984 27.4088C21.1043 27.5562 21.3237 27.6677 21.5568 27.7434C21.7937 27.819 22.0326 27.8644 22.2734 27.8795C22.5142 27.8946 22.7434 27.8795 22.9608 27.8341C23.1822 27.7887 23.3784 27.7169 23.5493 27.6186C23.724 27.5165 23.862 27.3918 23.9629 27.2443C24.0639 27.0931 24.1144 26.9211 24.1144 26.7282C24.1144 26.5241 24.0581 26.3445 23.9454 26.1895C23.8367 26.0345 23.6813 25.9154 23.4793 25.8322C23.4236 25.8077 23.3649 25.7867 23.3032 25.7691C23.3275 25.7605 23.3512 25.7513 23.3745 25.7415C23.5532 25.6621 23.693 25.5506 23.7939 25.4069C23.8949 25.2594 23.9454 25.0912 23.9454 24.9022C23.9454 24.6942 23.8833 24.5165 23.759 24.3691C23.6386 24.2179 23.4755 24.0969 23.2696 24.0061C23.0677 23.9116 22.8404 23.8549 22.588 23.836C22.3355 23.8133 22.0734 23.8303 21.8015 23.887C21.5335 23.94 21.2752 24.0345 21.0266 24.1706L21.213 24.6356C21.3956 24.526 21.5859 24.4466 21.784 24.3974C21.9821 24.3445 22.1743 24.3199 22.3608 24.3237C22.5511 24.3237 22.7201 24.3483 22.8676 24.3974C23.0191 24.4466 23.1376 24.5203 23.223 24.6186C23.3123 24.7131 23.357 24.8303 23.357 24.9702C23.357 25.1554 23.2832 25.301 23.1356 25.4069C22.9919 25.509 22.79 25.56 22.5297 25.56H21.6616V26.0194H22.5705C22.8696 26.0194 23.1026 26.0723 23.2696 26.1781C23.4405 26.284 23.5259 26.439 23.5259 26.6432C23.5259 26.8095 23.4716 26.9494 23.3628 27.0628C23.2541 27.1763 23.1084 27.2613 22.9259 27.318C22.7472 27.3747 22.5511 27.4031 22.3374 27.4031C22.1238 27.3993 21.9083 27.3634 21.6908 27.2953C21.4772 27.2273 21.281 27.1252 21.1023 26.9891Z" fill="#222222"/>
</svg>
