<svg width="218" height="80" viewBox="0 0 218 80" fill="none" xmlns="http://www.w3.org/2000/svg">
<g clip-path="url(#clip0_1_38)">
<rect width="218" height="80" fill="white"/>
</g>
<path d="M26.1006 20.0021H9.18301C8.02513 20.0021 7.04068 20.8439 6.86003 21.988L0.0177348 65.3997C-0.118353 66.256 0.544749 67.0285 1.41289 67.0285H9.48964C10.6473 67.0285 11.6318 66.187 11.8124 65.0408L13.6578 53.3321C13.836 52.1857 14.8229 51.344 15.9781 51.344H21.3338C32.4778 51.344 38.9094 45.9475 40.5893 35.2536C41.3461 30.5749 40.6213 26.899 38.432 24.3245C36.0276 21.4973 31.7629 20.0021 26.1006 20.0021ZM28.0525 35.8577C27.1273 41.9324 22.489 41.9324 18.0041 41.9324H15.4513L17.2422 30.5875C17.3487 29.9017 17.9422 29.3967 18.635 29.3967H19.8049C22.8599 29.3967 25.742 29.3967 27.2311 31.1392C28.1192 32.1791 28.3914 33.7237 28.0525 35.8577Z" fill="#283B82"/>
<path d="M76.6705 35.6621H68.5694C67.8793 35.6621 67.2832 36.1671 67.1764 36.8529L66.8182 39.1204L66.2515 38.2984C64.4977 35.7511 60.5865 34.8997 56.683 34.8997C47.7308 34.8997 40.0845 41.6849 38.5953 51.203C37.8212 55.9508 38.9219 60.4909 41.6133 63.6568C44.082 66.5679 47.6144 67.7808 51.8175 67.7808C59.0309 67.7808 63.0309 63.1397 63.0309 63.1397L62.6696 65.3923C62.5333 66.2537 63.1965 67.026 64.06 67.026H71.357C72.5173 67.026 73.4969 66.1843 73.6801 65.0384L78.0584 37.2909C78.1972 36.4368 77.5366 35.6621 76.6705 35.6621ZM65.3782 51.4407C64.5968 56.072 60.923 59.1815 56.2381 59.1815C53.8856 59.1815 52.0054 58.4263 50.7981 56.9955C49.6009 55.5746 49.1457 53.5522 49.5267 51.2994C50.2564 46.7075 53.9919 43.497 58.6051 43.497C60.906 43.497 62.7759 44.2618 64.0079 45.7048C65.2425 47.1628 65.7317 49.1978 65.3782 51.4407Z" fill="#283B82"/>
<path d="M119.817 35.6621H111.676C110.9 35.6621 110.17 36.0483 109.729 36.6945L98.5011 53.2453L93.7419 37.3405C93.4426 36.3453 92.5249 35.6621 91.4859 35.6621H83.486C82.5136 35.6621 81.8385 36.6126 82.1477 37.5285L91.1148 63.8623L82.6844 75.7718C82.0212 76.7098 82.6891 78 83.8349 78H91.9659C92.7375 78 93.4601 77.6235 93.8978 76.9898L120.975 37.8778C121.623 36.9419 120.958 35.6621 119.817 35.6621Z" fill="#283B82"/>
<path d="M146.771 20.0021H129.851C128.696 20.0021 127.711 20.8439 127.53 21.988L120.688 65.3997C120.552 66.256 121.215 67.0285 122.078 67.0285H130.761C131.567 67.0285 132.258 66.4396 132.384 65.6374L134.325 53.3321C134.503 52.1857 135.491 51.344 136.646 51.344H141.999C153.145 51.344 159.575 45.9475 161.257 35.2536C162.017 30.5749 161.287 26.899 159.097 24.3245C156.695 21.4973 152.433 20.0021 146.771 20.0021ZM148.723 35.8577C147.8 41.9324 143.162 41.9324 138.674 41.9324H136.124L137.918 30.5875C138.024 29.9017 138.612 29.3967 139.308 29.3967H140.478C143.531 29.3967 146.415 29.3967 147.904 31.1392C148.792 32.1791 149.061 33.7237 148.723 35.8577Z" fill="#469BDB"/>
<path d="M197.339 35.6621H189.242C188.547 35.6621 187.956 36.1671 187.852 36.8529L187.493 39.1204L186.924 38.2984C185.171 35.7511 181.262 34.8997 177.358 34.8997C168.406 34.8997 160.762 41.6849 159.273 51.203C158.501 55.9508 159.597 60.4909 162.289 63.6568C164.762 66.5679 168.29 67.7808 172.492 67.7808C179.706 67.7808 183.706 63.1397 183.706 63.1397L183.344 65.3923C183.209 66.2537 183.871 67.026 184.74 67.026H192.035C193.19 67.026 194.175 66.1843 194.356 65.0384L198.736 37.2909C198.87 36.4368 198.207 35.6621 197.339 35.6621ZM186.046 51.4407C185.269 56.072 181.591 59.1815 176.906 59.1815C174.558 59.1815 172.673 58.4263 171.466 56.9955C170.269 55.5746 169.818 53.5522 170.195 51.2994C170.929 46.7075 174.66 43.497 179.273 43.497C181.574 43.497 183.444 44.2618 184.676 45.7048C185.915 47.1628 186.405 49.1978 186.046 51.4407Z" fill="#469BDB"/>
<path d="M206.89 21.1931L199.946 65.3997C199.81 66.256 200.473 67.0285 201.336 67.0285H208.317C209.477 67.0285 210.462 66.187 210.64 65.0408L217.487 21.6316C217.623 20.7747 216.96 20 216.097 20H208.28C207.589 20.0021 206.996 20.5077 206.89 21.1931Z" fill="#469BDB"/>
<defs>
<clipPath id="clip0_1_38">
<rect width="218" height="80" fill="white"/>
</clipPath>
</defs>
</svg>
