<svg width="158" height="80" viewBox="0 0 158 80" fill="none" xmlns="http://www.w3.org/2000/svg">
<path d="M136.623 22.8358V42.3945H129.698V28.6745H123.03V42.3945H116.104V22.8345H136.623V22.8358Z" fill="black"/>
<path fill-rule="evenodd" clip-rule="evenodd" d="M101.881 43.0938C108.08 43.0938 112.684 39.2605 112.684 33.4491C112.684 27.8245 109.287 24.1725 103.611 24.1725C100.991 24.1725 98.8291 25.1025 97.2008 26.7071C97.5896 23.3905 100.371 20.9691 103.433 20.9691C104.14 20.9691 109.46 20.9578 109.46 20.9578L112.469 15.1518C112.469 15.1518 105.789 15.3051 102.684 15.3051C95.5891 15.4298 90.7969 21.9331 90.7969 29.8318C90.7969 39.0338 95.4708 43.0938 101.881 43.0938ZM101.918 29.3151C104.22 29.3151 105.816 30.8405 105.816 33.4485C105.816 35.7958 104.398 37.7298 101.918 37.7351C99.5464 37.7351 97.9505 35.9431 97.9505 33.4885C97.9505 30.8798 99.5464 29.3151 101.918 29.3151Z" fill="black"/>
<path d="M85.1598 35.8465C85.1598 35.8465 83.5242 36.7971 81.0815 36.9771C78.2732 37.0611 75.771 35.2725 75.771 32.0945C75.771 28.9945 77.979 27.2178 81.0108 27.2178C82.8698 27.2178 85.329 28.5171 85.329 28.5171C85.329 28.5171 87.1285 25.1871 88.0606 23.5218C86.3537 22.2171 84.0802 21.5018 81.4359 21.5018C74.7622 21.5018 69.5931 25.8898 69.5931 32.0551C69.5931 38.2991 74.4515 42.5851 81.4359 42.4558C83.3881 42.3825 86.0813 41.6911 87.7228 40.6278L85.1598 35.8465Z" fill="black"/>
<path d="M0 17.4133L9.60693 34.73V45.2927L0.0112385 62.5753L0 17.4133Z" fill="#5B57A2"/>
<path d="M36.8867 28.4287L45.8888 22.8647L64.3119 22.8473L36.8867 39.79V28.4287Z" fill="#D90751"/>
<path d="M36.8358 17.3113L36.8867 40.238L27.2573 34.2713V0L36.8358 17.3113Z" fill="#FAB718"/>
<path d="M64.312 22.8473L45.8881 22.8647L36.8358 17.3113L27.2573 0L64.312 22.8473Z" fill="#ED6F26"/>
<path d="M36.8867 62.6713V51.548L27.2573 45.6947L27.2626 80L36.8867 62.6713Z" fill="#63B22F"/>
<path d="M45.8663 57.158L9.60627 34.73L0 17.4133L64.2729 57.1353L45.8663 57.158Z" fill="#1487C9"/>
<path d="M27.2633 80L36.8861 62.6713L45.8656 57.158L64.2723 57.1353L27.2633 80Z" fill="#017F36"/>
<path d="M0.0112305 62.5753L27.336 45.6953L18.1495 40.0113L9.60692 45.2927L0.0112305 62.5753Z" fill="#984995"/>
<path d="M75.773 55.5578C75.5614 55.8298 75.2831 56.0351 74.9493 56.1738C74.6067 56.3144 74.2402 56.386 73.8704 56.3845C73.5026 56.3895 73.1369 56.3276 72.7908 56.2018C72.48 56.088 72.1959 55.9105 71.9565 55.6805C71.7201 55.4501 71.5345 55.172 71.4118 54.8645C71.2789 54.5275 71.2127 54.1677 71.2168 53.8051C71.2168 53.4451 71.2782 53.1118 71.4058 52.7958C71.5281 52.4791 71.706 52.2078 71.9287 51.9798C72.1515 51.7471 72.4186 51.5698 72.7187 51.4311C73.0248 51.2978 73.3587 51.2258 73.7256 51.2258C74.1209 51.2258 74.4878 51.2758 74.8217 51.3751C75.1555 51.4751 75.4391 51.6418 75.6725 51.8751L75.2666 52.5685C75.0703 52.389 74.839 52.2528 74.5876 52.1685C74.3486 52.0908 74.099 52.0517 73.8479 52.0525C73.6258 52.0525 73.4142 52.0965 73.2086 52.1798C73.006 52.2621 72.8209 52.3827 72.6632 52.5351C72.5021 52.6919 72.3751 52.8808 72.2904 53.0898C72.1958 53.3058 72.1515 53.5445 72.1515 53.8105C72.1515 54.0825 72.2011 54.3265 72.2957 54.5371C72.3908 54.7538 72.5184 54.9371 72.6797 55.0918C72.8411 55.2478 73.0301 55.3638 73.247 55.4418C73.4645 55.5251 73.6925 55.5638 73.9371 55.5638C74.2373 55.5638 74.5103 55.5025 74.7437 55.3858C74.9749 55.2732 75.1827 55.117 75.3558 54.9258L75.773 55.5578ZM76.9186 56.2678V51.3311H77.7979V55.0091L80.6571 51.3311H81.5363V56.2685H80.6571V52.5905L77.7979 56.2685L76.9186 56.2678ZM87.3605 55.5578C87.1442 55.8321 86.8605 56.0445 86.5375 56.1738C86.1947 56.3143 85.8279 56.3859 85.4579 56.3845C85.0903 56.3894 84.7248 56.3276 84.379 56.2018C84.068 56.088 83.7837 55.9105 83.5441 55.6805C83.3076 55.4501 83.122 55.172 82.9993 54.8645C82.8665 54.5275 82.8002 54.1677 82.8043 53.8051C82.8043 53.4451 82.8658 53.1118 82.9934 52.7958C83.1163 52.4791 83.2942 52.2078 83.5163 51.9798C83.7391 51.7471 84.0062 51.5698 84.3063 51.4311C84.6233 51.2903 84.9668 51.2203 85.3131 51.2258C85.7085 51.2258 86.0754 51.2758 86.4092 51.3751C86.7431 51.4751 87.0267 51.6418 87.2607 51.8751L86.8541 52.5685C86.6581 52.3889 86.4271 52.2527 86.1758 52.1685C85.9368 52.0909 85.6872 52.0517 85.4361 52.0525C84.9942 52.0539 84.5698 52.2267 84.2508 52.5351C84.091 52.6931 83.9643 52.8817 83.8779 53.0898C83.7834 53.3058 83.7391 53.5445 83.7391 53.8105C83.7391 54.0825 83.7893 54.3265 83.8839 54.5371C83.9784 54.7538 84.106 54.9371 84.2673 55.0918C84.4286 55.2478 84.6183 55.3638 84.8352 55.4418C85.052 55.5191 85.2801 55.5638 85.5247 55.5638C85.8255 55.5638 86.0926 55.5025 86.3312 55.3858C86.5624 55.2732 86.7702 55.117 86.9434 54.9258L87.3605 55.5578ZM87.8114 51.3311H92.3226V52.2078H90.5093V56.2678H89.63V52.2078H87.8167V51.3311H87.8114Z" fill="black"/>
<path fill-rule="evenodd" clip-rule="evenodd" d="M96.4287 56.2185C96.7625 56.1131 97.0461 55.9518 97.2907 55.7305L97.0237 55.0425C96.8624 55.1871 96.6455 55.3091 96.3844 55.4091C96.1226 55.5091 95.8277 55.5585 95.5051 55.5585C95.0212 55.5585 94.6206 55.4311 94.3033 55.1705C93.9866 54.9091 93.8141 54.5438 93.7751 54.0771H97.5803C97.6193 53.9051 97.6358 53.7111 97.6358 53.4838C97.6358 53.1451 97.5743 52.8405 97.452 52.5631C97.3382 52.2938 97.1718 52.0503 96.9628 51.8471C96.751 51.6458 96.5012 51.4894 96.2284 51.3871C95.9428 51.2754 95.6389 51.2188 95.3326 51.2205C94.9207 51.2205 94.5591 51.2925 94.2425 51.4258C93.9431 51.5528 93.6723 51.7397 93.4465 51.9751C93.2273 52.2093 93.0589 52.487 92.952 52.7905C92.8345 53.1136 92.776 53.4556 92.7795 53.7998C92.7795 54.1885 92.8462 54.5431 92.9685 54.8598C93.0875 55.1666 93.2696 55.4444 93.5027 55.6751C93.7308 55.9018 94.0084 56.0745 94.337 56.1965C94.6888 56.3223 95.0599 56.3841 95.4331 56.3791C95.7711 56.377 96.1068 56.3224 96.4287 56.2185ZM94.2035 52.4185C94.4758 52.1691 94.8374 52.0471 95.2936 52.0471C95.722 52.0471 96.0671 52.1638 96.3176 52.3971C96.5682 52.6298 96.701 52.9518 96.7235 53.3618H93.7195C93.7621 52.9988 93.9341 52.6631 94.2035 52.4185Z" fill="black"/>
<path d="M98.8317 51.3311H99.633L101.536 53.7778L103.338 51.3311H104.116V56.2685H103.238V52.6685L101.524 54.9591H101.491L99.711 52.6678V56.2678H98.8317V51.3311Z" fill="black"/>
<path fill-rule="evenodd" clip-rule="evenodd" d="M106.508 51.3478C106.241 51.4181 105.987 51.5282 105.752 51.6745L105.985 52.3745C106.186 52.2745 106.386 52.1911 106.586 52.1191C106.787 52.0465 107.042 52.0131 107.349 52.0131C107.593 52.0131 107.788 52.0525 107.938 52.1298C108.088 52.2018 108.199 52.3131 108.277 52.4465C108.355 52.5798 108.406 52.7458 108.433 52.9398C108.461 53.1338 108.472 53.3445 108.472 53.5725C108.292 53.446 108.087 53.3607 107.871 53.3225C107.663 53.2806 107.45 53.2583 107.237 53.2558C106.976 53.2558 106.731 53.2951 106.497 53.3611C106.264 53.4278 106.063 53.5278 105.902 53.6611C105.737 53.7942 105.604 53.9628 105.513 54.1545C105.415 54.3643 105.365 54.5939 105.368 54.8258C105.368 55.3085 105.507 55.6858 105.785 55.9525C106.063 56.2185 106.43 56.3511 106.886 56.3511C107.298 56.3511 107.627 56.2791 107.877 56.1351C108.127 55.9905 108.328 55.8245 108.472 55.6358V56.2738H109.295V53.2451C109.295 52.6011 109.157 52.1025 108.873 51.7525C108.595 51.4031 108.1 51.2258 107.399 51.2258C107.087 51.2258 106.792 51.2698 106.508 51.3478ZM107.978 55.3478C107.778 55.4918 107.516 55.5578 107.193 55.5578C106.91 55.5578 106.687 55.4858 106.531 55.3471C106.375 55.2031 106.297 55.0145 106.297 54.7811C106.297 54.6431 106.325 54.5265 106.387 54.4211C106.448 54.3158 106.531 54.2325 106.626 54.1658C106.729 54.0961 106.844 54.0453 106.965 54.0158C107.093 53.9825 107.221 53.9658 107.354 53.9658C107.789 53.9658 108.161 54.0711 108.467 54.2931V54.9198C108.323 55.0828 108.158 55.2271 107.978 55.3478ZM117.057 49.5945C117.234 49.5118 117.401 49.3731 117.557 49.1678L117.078 48.4745C116.956 48.6411 116.817 48.7571 116.661 48.8185C116.496 48.8836 116.325 48.9319 116.15 48.9625L115.983 48.9925C115.838 49.0178 115.683 49.0458 115.516 49.0738C115.247 49.1238 114.986 49.2057 114.737 49.3178C114.342 49.4898 114.025 49.7225 113.786 50.0165C113.546 50.3105 113.357 50.6431 113.229 51.0098C113.099 51.3812 113.011 51.7664 112.968 52.1578C112.923 52.5578 112.901 52.9398 112.901 53.3058C112.901 53.7778 112.962 54.2045 113.084 54.5871C113.207 54.9705 113.379 55.2918 113.607 55.5525C113.835 55.8191 114.108 56.0191 114.431 56.1631C114.753 56.3071 115.115 56.3791 115.521 56.3791C115.894 56.3791 116.239 56.3071 116.55 56.1738C116.85 56.0457 117.123 55.8592 117.351 55.6251C117.574 55.3971 117.752 55.1251 117.874 54.8205C118.002 54.5151 118.063 54.1878 118.063 53.8438C118.063 53.4725 118.008 53.1345 117.902 52.8345C117.805 52.5485 117.649 52.286 117.446 52.0638C117.242 51.8453 116.993 51.6746 116.717 51.5638C116.412 51.4428 116.087 51.3826 115.76 51.3865C115.549 51.3865 115.343 51.4145 115.143 51.4698C114.948 51.5252 114.761 51.6054 114.586 51.7085C114.417 51.8064 114.261 51.9275 114.125 52.0685C113.991 52.2078 113.88 52.3631 113.802 52.5405H113.78C113.797 52.3131 113.825 52.0805 113.874 51.8418C113.924 51.6031 113.996 51.3751 114.092 51.1591C114.186 50.9431 114.308 50.7485 114.459 50.5711C114.619 50.3921 114.817 50.2502 115.037 50.1551C115.279 50.0388 115.535 49.955 115.799 49.9058L115.974 49.8738C116.148 49.8418 116.314 49.8111 116.472 49.7778C116.684 49.7338 116.878 49.6771 117.057 49.5945ZM113.963 54.3378C113.877 54.0577 113.836 53.7656 113.841 53.4725C113.878 53.3042 113.946 53.1444 114.041 53.0011C114.136 52.8511 114.258 52.7185 114.403 52.6011C114.73 52.343 115.134 52.2043 115.549 52.2078C116.066 52.2078 116.456 52.3685 116.728 52.6851C117.001 53.0065 117.135 53.4058 117.135 53.8885C117.135 54.1271 117.09 54.3438 117.012 54.5431C116.937 54.7397 116.824 54.9191 116.678 55.0707C116.533 55.2222 116.359 55.3427 116.167 55.4251C115.966 55.5138 115.749 55.5585 115.504 55.5585C115.26 55.5585 115.037 55.5085 114.831 55.4085C114.627 55.3105 114.447 55.1685 114.303 54.9925C114.152 54.7963 114.037 54.5746 113.963 54.3378ZM124.806 51.3311H123.927V56.2685H124.806V51.3311ZM119.331 51.3311H120.211V52.8125H121.023C121.407 52.8125 121.718 52.8625 121.968 52.9565C122.219 53.0511 122.419 53.1785 122.569 53.3338C122.719 53.4891 122.825 53.6725 122.887 53.8771C122.948 54.0825 122.981 54.2931 122.981 54.5151C122.981 54.7371 122.948 54.9485 122.875 55.1591C122.809 55.3698 122.692 55.5525 122.536 55.7191C122.38 55.8858 122.169 56.0191 121.902 56.1191C121.635 56.2185 121.312 56.2738 120.923 56.2738H119.326V51.3311H119.331ZM120.211 53.6385V55.4471H120.851C121.29 55.4471 121.602 55.3698 121.779 55.2138C121.958 55.0585 122.046 54.8371 122.046 54.5431C122.046 54.2431 121.952 54.0165 121.774 53.8605C121.59 53.7051 121.284 53.6271 120.862 53.6271H120.211V53.6385Z" fill="black"/>
<path d="M130.619 55.5578C130.408 55.8298 130.13 56.0351 129.796 56.1738C129.453 56.3144 129.087 56.3859 128.717 56.3845C128.349 56.3895 127.983 56.3276 127.637 56.2018C127.326 56.0881 127.042 55.9106 126.803 55.6805C126.567 55.4499 126.381 55.172 126.258 54.8645C126.125 54.5274 126.059 54.1676 126.063 53.8051C126.063 53.4451 126.124 53.1118 126.252 52.7958C126.375 52.4791 126.552 52.2078 126.775 51.9798C126.998 51.7471 127.264 51.5698 127.565 51.4311C127.882 51.2903 128.226 51.2202 128.572 51.2258C128.967 51.2258 129.334 51.2758 129.668 51.3751C130.002 51.4751 130.286 51.6418 130.519 51.8751L130.113 52.5685C129.917 52.389 129.686 52.2528 129.434 52.1685C129.195 52.0908 128.945 52.0517 128.694 52.0525C128.472 52.0525 128.261 52.0965 128.054 52.1798C127.852 52.2621 127.667 52.3827 127.51 52.5351C127.35 52.6929 127.223 52.8815 127.137 53.0898C127.042 53.3058 126.998 53.5445 126.998 53.8105C126.998 54.0825 127.048 54.3265 127.142 54.5371C127.237 54.7538 127.365 54.9371 127.526 55.0918C127.688 55.2478 127.877 55.3638 128.093 55.4418C128.311 55.5191 128.539 55.5638 128.784 55.5638C129.084 55.5638 129.351 55.5025 129.59 55.3858C129.821 55.2732 130.029 55.117 130.202 54.9258L130.619 55.5578ZM131.07 51.3311H135.582V52.2078H133.768V56.2678H132.889V52.2078H131.076V51.3311H131.07Z" fill="black"/>
<path fill-rule="evenodd" clip-rule="evenodd" d="M137.417 51.3318H136.538V58.4651H137.417V56.0411C137.595 56.1578 137.807 56.2411 138.051 56.2965C138.296 56.3518 138.552 56.3791 138.814 56.3791C139.203 56.3791 139.553 56.3071 139.871 56.1745C140.175 56.0432 140.451 55.8529 140.683 55.6145C140.911 55.3751 141.083 55.0978 141.205 54.7705C141.328 54.4438 141.389 54.0938 141.389 53.7225C141.389 53.3558 141.334 53.0178 141.228 52.7125C141.128 52.4225 140.973 52.155 140.772 51.9251C140.574 51.7009 140.329 51.5246 140.054 51.4091C139.754 51.279 139.429 51.2147 139.103 51.2205C138.758 51.2205 138.436 51.2871 138.129 51.4205C137.823 51.5538 137.584 51.7138 137.417 51.9138V51.3318ZM138.03 52.2471C138.28 52.1138 138.553 52.0471 138.847 52.0471C139.103 52.0471 139.331 52.0858 139.538 52.1691C139.738 52.2525 139.904 52.3691 140.044 52.5245C140.183 52.6798 140.289 52.8578 140.355 53.0678C140.427 53.2785 140.461 53.5065 140.461 53.7558C140.461 54.0225 140.416 54.2605 140.339 54.4825C140.266 54.6929 140.15 54.8857 139.999 55.0485C139.847 55.2092 139.663 55.3358 139.46 55.4198C139.232 55.5158 138.988 55.563 138.742 55.5585C138.503 55.5585 138.28 55.5311 138.069 55.4758C137.837 55.4123 137.617 55.3109 137.418 55.1758V52.7291C137.573 52.5411 137.78 52.3805 138.03 52.2471ZM148.132 51.3311H147.252V56.2685H148.132V51.3311ZM142.652 51.3311H143.531V52.8125H144.343C144.727 52.8125 145.038 52.8625 145.289 52.9565C145.54 53.0511 145.74 53.1785 145.89 53.3338C146.04 53.4891 146.146 53.6725 146.207 53.8771C146.268 54.0825 146.301 54.2931 146.301 54.5151C146.301 54.7371 146.268 54.9485 146.196 55.1591C146.129 55.3698 146.012 55.5525 145.856 55.7191C145.701 55.8858 145.489 56.0191 145.222 56.1191C144.955 56.2185 144.633 56.2738 144.243 56.2738H142.647V51.3311H142.652ZM143.537 53.6385V55.4471H144.177C144.616 55.4471 144.928 55.3698 145.106 55.2138C145.284 55.0585 145.373 54.8371 145.373 54.5431C145.373 54.2431 145.278 54.0165 145.101 53.8605C144.917 53.7051 144.611 53.6271 144.188 53.6271H143.537V53.6385Z" fill="black"/>
<path d="M152.349 53.7111L154.229 56.2685H153.15L151.698 54.2711L150.223 56.2685H149.2L151.069 53.7551L149.311 51.3311H150.391L151.731 53.1951L153.094 51.3311H154.118L152.349 53.7111ZM75.1225 62.3705H72.4246V66.4865H71.5453V61.5498H76.0011V66.4865H75.1225V62.3705ZM80.9909 62.4258H79.2556L79.1994 63.2578C79.1386 63.9625 79.0553 64.5285 78.9383 64.9605C78.8213 65.3938 78.6765 65.7265 78.5099 65.9591C78.3433 66.1925 78.1483 66.3531 77.9255 66.4311C77.6957 66.5152 77.4526 66.5565 77.2082 66.5531L77.1414 65.6985C77.236 65.7038 77.347 65.6818 77.4693 65.6265C77.5923 65.5711 77.7146 65.4491 77.8309 65.2665C77.948 65.0771 78.0537 64.8111 78.1483 64.4671C78.2428 64.1178 78.3043 63.6631 78.3373 63.0911L78.4266 61.5545H81.8702V66.4918H80.9909V62.4258Z" fill="black"/>
<path fill-rule="evenodd" clip-rule="evenodd" d="M84.2402 61.5611C83.9559 61.6385 83.7001 61.7491 83.4833 61.8878L83.7173 62.5871C83.9176 62.4871 84.1179 62.4038 84.3175 62.3318C84.5179 62.2598 84.7744 62.2265 85.0798 62.2265C85.325 62.2265 85.5194 62.2651 85.6695 62.3425C85.8202 62.4151 85.9313 62.5258 86.0093 62.6591C86.0866 62.7925 86.1369 62.9591 86.1646 63.1525C86.1924 63.3471 86.2036 63.5578 86.2036 63.7851C86.0237 63.6589 85.8186 63.5738 85.6027 63.5358C85.3939 63.4939 85.1816 63.4716 84.9687 63.4691C84.7076 63.4691 84.4623 63.5078 84.229 63.5745C83.9949 63.6411 83.7946 63.7411 83.6333 63.8745C83.4687 64.0076 83.3356 64.1761 83.2439 64.3678C83.1462 64.5777 83.0969 64.8072 83.0998 65.0391C83.0998 65.5211 83.2386 65.8991 83.517 66.1651C83.7946 66.4311 84.1622 66.5645 84.6183 66.5645C85.0302 66.5645 85.3581 66.4925 85.6086 66.3478C85.8585 66.2038 86.0589 66.0371 86.2036 65.8485V66.4865H87.0273V63.4578C87.0273 62.8145 86.8879 62.3151 86.6043 61.9658C86.3259 61.6158 85.8308 61.4391 85.13 61.4391C84.8294 61.4394 84.5301 61.4809 84.2402 61.5611ZM85.7144 65.5598C85.5148 65.7045 85.253 65.7711 84.9304 65.7711C84.6408 65.7711 84.424 65.6991 84.2686 65.5598C84.1126 65.4158 84.0346 65.2271 84.0346 64.9945C84.0346 64.8558 84.0624 64.7391 84.1238 64.6338C84.1847 64.5285 84.2686 64.4451 84.3632 64.3785C84.4577 64.3118 84.5741 64.2618 84.7023 64.2285C84.8295 64.1953 84.9603 64.1788 85.0917 64.1791C85.5254 64.1791 85.8982 64.2845 86.2043 64.5058V65.1325C86.0598 65.2955 85.8952 65.4391 85.7144 65.5598Z" fill="black"/>
<path d="M87.8887 61.5498H92.4007V62.4258H90.5866V66.4865H89.708V62.4265H87.8947V61.5498H87.8887Z" fill="black"/>
<path fill-rule="evenodd" clip-rule="evenodd" d="M96.5067 66.4365C96.8405 66.3311 97.1241 66.1698 97.3687 65.9485L97.1017 65.2605C96.9404 65.4051 96.7235 65.5271 96.4617 65.6271C96.2006 65.7271 95.9058 65.7765 95.5831 65.7765C95.0992 65.7765 94.6986 65.6491 94.3813 65.3885C94.064 65.1278 93.8921 64.7618 93.8531 64.2951H97.6583C97.6966 64.1238 97.7138 63.9291 97.7138 63.7018C97.7138 63.3638 97.6523 63.0585 97.53 62.7811C97.4161 62.5119 97.2495 62.2686 97.0402 62.0658C96.8287 61.8641 96.5791 61.7075 96.3064 61.6051C96.0208 61.4934 95.7169 61.4369 95.4106 61.4385C94.9987 61.4385 94.6371 61.5105 94.3205 61.6438C94.0209 61.7705 93.7501 61.9574 93.5245 62.1931C93.3053 62.4275 93.1367 62.7051 93.0294 63.0085C92.9121 63.3317 92.8537 63.6736 92.8568 64.0178C92.8568 64.4065 92.9236 64.7611 93.0459 65.0778C93.1688 65.3938 93.352 65.6658 93.58 65.8931C93.8081 66.1205 94.0864 66.2925 94.415 66.4145C94.7665 66.5405 95.1374 66.6026 95.5104 66.5978C95.839 66.5978 96.1728 66.5418 96.5067 66.4365ZM94.2762 62.6311C94.5485 62.3818 94.9102 62.2598 95.3663 62.2598C95.8006 62.2598 96.1398 62.3818 96.3903 62.6091C96.6402 62.8425 96.7738 63.1638 96.7962 63.5745H93.7923C93.8347 63.2112 94.0067 62.8759 94.2762 62.6311ZM98.1422 61.5498H99.2548L100.951 63.9298L99.1378 66.4865H98.0589L99.9609 63.9291L98.1422 61.5498ZM101.168 61.5498H102.047V66.4865H101.168V61.5498ZM105.19 66.4865L103.254 63.9291L105.062 61.5491H103.972L102.264 63.9291L104.1 66.4865H105.19ZM109.207 66.4365C109.541 66.3311 109.824 66.1698 110.069 65.9485L109.802 65.2605C109.641 65.4051 109.424 65.5271 109.163 65.6271C108.901 65.7271 108.606 65.7765 108.283 65.7765C107.799 65.7765 107.399 65.6491 107.081 65.3885C106.765 65.1278 106.592 64.7618 106.553 64.2951H110.358C110.397 64.1238 110.414 63.9291 110.414 63.7018C110.414 63.3638 110.353 63.0585 110.23 62.7811C110.116 62.512 109.95 62.2688 109.741 62.0658C109.529 61.8641 109.28 61.7075 109.007 61.6051C108.721 61.4934 108.417 61.4368 108.111 61.4385C107.7 61.4385 107.338 61.5105 107.021 61.6438C106.721 61.7707 106.451 61.9576 106.225 62.1931C106.006 62.4271 105.837 62.7048 105.73 63.0085C105.613 63.3316 105.554 63.6736 105.558 64.0178C105.558 64.4065 105.624 64.7611 105.747 65.0778C105.869 65.3938 106.053 65.6658 106.281 65.8931C106.509 66.1205 106.787 66.2925 107.115 66.4145C107.467 66.5405 107.838 66.6026 108.211 66.5978C108.549 66.5953 108.885 66.5409 109.207 66.4365ZM106.976 62.6311C107.249 62.3818 107.611 62.2598 108.067 62.2598C108.496 62.2598 108.84 62.3818 109.09 62.6091C109.341 62.8425 109.475 63.1638 109.496 63.5745H106.492C106.535 63.2112 106.707 62.8759 106.976 62.6311ZM113.981 59.8911C113.463 59.8911 113.179 59.6025 113.135 59.0258H112.306C112.306 59.2471 112.345 59.4471 112.417 59.6358C112.49 59.8245 112.596 59.9851 112.734 60.1185C112.873 60.2518 113.052 60.3571 113.257 60.4398C113.463 60.5231 113.702 60.5618 113.975 60.5618C114.225 60.5618 114.448 60.5231 114.648 60.4398C114.849 60.3625 115.015 60.2518 115.16 60.1185C115.299 59.9851 115.41 59.8245 115.488 59.6358C115.566 59.4471 115.605 59.2471 115.605 59.0258H114.782C114.743 59.6025 114.47 59.8911 113.981 59.8911ZM111.605 61.5491V66.4865H112.484L115.343 62.8085V66.4865H116.222V61.5491H115.343L112.484 65.2271V61.5491H111.605Z" fill="black"/>
</svg>
