<svg width="160" height="160" viewBox="0 0 160 160" fill="none" xmlns="http://www.w3.org/2000/svg">
<g clip-path="url(#clip0_1_3)">
<rect x="82.963" y="41.4815" width="41.4815" height="35.5556" fill="#FFB800"/>
<mask id="mask0_1_3" style="mask-type:luminance" maskUnits="userSpaceOnUse" x="0" y="0" width="160" height="160">
<path d="M0 0H160V160H0V0Z" fill="white"/>
</mask>
<g mask="url(#mask0_1_3)">
<path d="M110.979 139.782C115.248 134.797 118.987 128.86 122.006 122.106H132.545C126.688 129.403 119.349 135.437 110.979 139.782ZM27.4543 122.106H37.9933C41.008 128.86 44.7512 134.797 49.0206 139.782C40.6459 135.437 33.3112 129.403 27.4543 122.106ZM49.0206 20.2156C44.7512 25.2009 41.008 31.1377 37.9933 37.8956H27.4543C33.3112 30.5945 40.6501 24.5651 49.0206 20.2156ZM132.545 37.8956H122.006C118.987 31.1377 115.248 25.2009 110.979 20.2156C119.349 24.5609 126.688 30.5945 132.545 37.8956ZM130.385 75.7903C129.997 65.2387 128.187 55.2808 125.214 46.3166H138.28C143.362 55.0829 146.494 65.0914 147.155 75.7903H130.385ZM130.385 84.2114H147.155C146.494 94.9103 143.362 104.915 138.28 113.685H125.214C128.187 104.721 129.997 94.7629 130.385 84.2114ZM84.2122 113.685V84.2114H121.972C121.56 94.9103 119.602 104.915 116.427 113.685H84.2122ZM84.2122 147.028V122.106H112.84C105.951 135.845 95.7785 145.188 84.2122 147.028ZM75.7912 122.106V147.028C64.2249 145.188 54.048 135.845 47.1596 122.106H75.7912ZM38.027 84.2114H75.7912V113.685H43.5722C40.3975 104.915 38.4396 94.9103 38.027 84.2114ZM29.6143 75.7903H12.8438C13.5091 65.0914 16.6375 55.0829 21.7154 46.3166H34.7891C31.8122 55.2808 30.0059 65.2387 29.6143 75.7903ZM75.7912 46.3166V75.7903H38.027C38.4396 65.0914 40.3975 55.0872 43.5722 46.3166H75.7912ZM75.7912 12.9693V37.8956H47.1596C54.0522 24.1524 64.2249 14.8093 75.7912 12.9693ZM116.427 46.3166C119.602 55.0872 121.56 65.0914 121.972 75.7903H84.2122V46.3166H116.427ZM84.2122 37.8956V12.9693C95.7785 14.8093 105.947 24.1524 112.835 37.8956H84.2122ZM12.8438 84.2114H29.6143C30.0017 94.7629 31.8122 104.721 34.7891 113.685H21.7154C16.6375 104.915 13.5091 94.9103 12.8438 84.2114ZM80.0017 4.21137C38.1449 4.21137 4.21222 38.144 4.21222 80.0008C4.21222 121.858 38.1449 155.79 80.0017 155.79C121.859 155.79 155.791 121.858 155.791 80.0008C155.791 38.144 121.859 4.21137 80.0017 4.21137Z" fill="#3B88C3"/>
</g>
</g>
<defs>
<clipPath id="clip0_1_3">
<rect width="160" height="160" fill="white"/>
</clipPath>
</defs>
</svg>
